<svg xmlns="http://www.w3.org/2000/svg" width="43.156" height="49.135" viewBox="0 0 43.156 49.135">
  <g id="Group_682" data-name="Group 682" transform="translate(0)">
    <g id="Group_249" data-name="Group 249">
      <path id="Path_269" data-name="Path 269" d="M5476.9,180.411c0-2.271-.3-2.575-2.541-2.579q-9.526-.017-19.05,0c-6.413,0-12.826.027-19.242-.015-1.641-.012-2.3.643-2.292,2.287.048,7.7-.084,15.4.066,23.089a24.864,24.864,0,0,0,19.085,23.439,8.739,8.739,0,0,0,3.576.216,24.813,24.813,0,0,0,20.39-24.686C5476.95,194.908,5476.907,187.659,5476.9,180.411Zm-3.118,22.488a21.735,21.735,0,0,1-17.487,20.867,4.951,4.951,0,0,1-1.875.008,21.728,21.728,0,0,1-17.507-20.848c-.126-7.241-.022-14.485-.022-21.942h36.8a7.212,7.212,0,0,1,.123.939C5473.816,188.914,5473.909,195.909,5473.781,202.9Zm-30.71-15.7c0,5.512-.315,10.913.077,16.256.5,6.817,4.319,11.49,10.736,13.885a4.606,4.606,0,0,0,2.933,0c5.724-2.1,9.755-6.105,10.394-12.191.616-5.878.135-11.872.135-17.946Z" transform="translate(-5433.766 -177.812)" fill="#cacbcc"/>
      <path id="Path_270" data-name="Path 270" d="M5476.9,180.411c0-2.271-.3-2.575-2.541-2.579q-9.526-.017-19.05,0c-6.413,0-12.826.027-19.242-.015-1.641-.012-2.3.643-2.292,2.287.048,7.7-.084,15.4.066,23.089a24.864,24.864,0,0,0,19.085,23.439,8.739,8.739,0,0,0,3.576.216,24.813,24.813,0,0,0,20.39-24.686C5476.95,194.908,5476.907,187.659,5476.9,180.411Zm-3.118,22.488a21.735,21.735,0,0,1-17.487,20.867,4.951,4.951,0,0,1-1.875.008,21.728,21.728,0,0,1-17.507-20.848c-.126-7.241-.022-14.485-.022-21.942h36.8a7.212,7.212,0,0,1,.123.939C5473.816,188.914,5473.909,195.909,5473.781,202.9Z" transform="translate(-5433.766 -177.812)" fill="#00529c"/>
      <path id="Path_271" data-name="Path 271" d="M5484.339,192.749a7.384,7.384,0,0,0-.123-.939h-36.8c0,7.456-.1,14.7.023,21.942a21.728,21.728,0,0,0,17.507,20.848,4.948,4.948,0,0,0,1.875-.008,21.735,21.735,0,0,0,17.488-20.867C5484.431,206.734,5484.339,199.74,5484.339,192.749Zm-17,35.414a4.608,4.608,0,0,1-2.933,0c-6.416-2.394-10.235-7.068-10.736-13.885-.393-5.343-.077-10.744-.077-16.256h24.275c0,6.074.48,12.068-.135,17.946C5477.095,222.059,5473.064,226.062,5467.34,228.164Z" transform="translate(-5444.289 -188.638)" fill="#dce7f1"/>
      <path id="Path_272" data-name="Path 272" d="M5498.692,219.243h-24.273c0,5.512-.315,10.913.076,16.256.5,6.817,4.319,11.49,10.736,13.885a4.6,4.6,0,0,0,2.932,0c5.725-2.1,9.757-6.105,10.395-12.191C5499.173,231.311,5498.692,225.317,5498.692,219.243Z" transform="translate(-5465.112 -209.854)" fill="#00529c"/>
      <path id="Path_273" data-name="Path 273" d="M5519.7,247.7c-2.124,2.115-4.087,4.069-6.048,6.027-.641.64-.733,1.248-.27,1.69s.989.371,1.63-.269q3.22-3.213,6.433-6.433c.7-.7.7-1.161.01-1.86q-2.533-2.568-5.085-5.118a3.177,3.177,0,0,0-.667-.445l4.747-4.75c0,.786,0,1.747,0,2.709,0,.656.328,1.073.984,1.065a.921.921,0,0,0,.952-1.022c.039-1.8.086-3.607.1-5.411,0-.767-.35-1.144-1.089-1.142-1.83,0-3.661.036-5.489.083a.969.969,0,0,0-1.01,1.122,1.02,1.02,0,0,0,1.153.835c.948,0,1.9,0,3,0-1.764,1.764-3.423,3.422-5.081,5.082-.978.979-.984,1.255.018,2.242C5515.859,243.951,5517.748,245.791,5519.7,247.7Z" transform="translate(-5495.111 -220.29)" fill="#fff"/>
      <path id="Path_274" data-name="Path 274" d="M5519.7,247.7c-1.948-1.906-3.837-3.745-5.715-5.6-1-.987-1-1.264-.018-2.242,1.658-1.66,3.317-3.318,5.081-5.082-1.1,0-2.048,0-3,0a1.02,1.02,0,0,1-1.153-.835.969.969,0,0,1,1.01-1.122c1.828-.047,3.659-.079,5.489-.083.739,0,1.094.375,1.089,1.142-.015,1.8-.062,3.607-.1,5.411a.921.921,0,0,1-.952,1.022c-.656.008-.982-.409-.984-1.065,0-.961,0-1.923,0-2.709l-4.747,4.75a3.177,3.177,0,0,1,.667.445q2.56,2.543,5.085,5.118c.69.7.687,1.16-.01,1.86q-3.214,3.222-6.433,6.433c-.642.64-1.16.718-1.63.269s-.371-1.049.27-1.69C5515.609,251.766,5517.572,249.812,5519.7,247.7Z" transform="translate(-5495.111 -220.29)" fill="#dce7f1"/>
    </g>
  </g>
</svg>
