<svg xmlns="http://www.w3.org/2000/svg" width="115.503" height="44.696" viewBox="0 0 115.503 44.696">
  <g id="Group_666" data-name="Group 666" transform="translate(-1041.012 -250.753)">
    <rect id="Rectangle_199" data-name="Rectangle 199" width="69.096" height="44.696" transform="translate(1041.012 250.753)" fill="#00529c"/>
    <g id="Group_288" data-name="Group 288" transform="translate(1050.425 272.77)">
      <rect id="Rectangle_200" data-name="Rectangle 200" width="2.396" height="15.751" transform="translate(0 0.092)" fill="#fff"/>
      <rect id="Rectangle_201" data-name="Rectangle 201" width="2.394" height="15.751" transform="translate(11.612 0.092)" fill="#fff"/>
      <rect id="Rectangle_202" data-name="Rectangle 202" width="2.399" height="9.798" transform="translate(33.094 6.045)" fill="#fff"/>
      <rect id="Rectangle_203" data-name="Rectangle 203" width="2.394" height="9.798" transform="translate(47.011 6.045)" fill="#fff"/>
      <path id="Path_297" data-name="Path 297" d="M1095.451,373.23s2.84-2.006,5.275-.131a3.78,3.78,0,0,1,1.1,1.539,7.7,7.7,0,0,1,.276,4.1c-.6,3.39-2.948,3.847-4.609,3.527s-2.067-.945-2.067-.945a7.008,7.008,0,0,0,2.545-.23c1.2-.382,1.461-1,1.66-2.242s.168-3.973-.642-4.794-3.454-.723-3.454-.723-.151-.062-.081-.1" transform="translate(-1092.342 -366.405)" fill="#fff"/>
      <path id="Path_298" data-name="Path 298" d="M1146.2,373.162s2.626-1.805,5.081-.294a3.526,3.526,0,0,1,1.12,2.825l.011,6.5-2.406.029-.018-6.811s.018-1.708-1.454-2a6.814,6.814,0,0,0-2.319-.136s-.078-.076-.016-.118" transform="translate(-1131.439 -366.379)" fill="#fff"/>
      <path id="Path_299" data-name="Path 299" d="M1186.7,373.359s2.926-1.755,5.577-.333a3.229,3.229,0,0,1,1.214,2.826l.016,6.5-2.409.029-.016-6.811a2.079,2.079,0,0,0-1.789-2,8.9,8.9,0,0,0-2.577-.094s-.082-.076-.016-.121" transform="translate(-1162.638 -366.537)" fill="#fff"/>
      <path id="Path_300" data-name="Path 300" d="M1238.474,374.562a3.588,3.588,0,0,1,3.027-2.236v2.236Z" transform="translate(-1202.543 -366.426)" fill="#fff"/>
      <path id="Path_301" data-name="Path 301" d="M1259.941,360.794v2.8h2.69v1.06h-2.718v6.05s-.055,1.692,1.407,1.589,1.42.038,1.42.038a.22.22,0,0,1-.081.214,3.718,3.718,0,0,1-3.385.8,2.533,2.533,0,0,1-1.3-.841,3.842,3.842,0,0,1-.464-1.741c-.016-.061,0-8.767,0-8.767l2.119-1.2Z" transform="translate(-1217.204 -357.542)" fill="#fff"/>
      <path id="Path_302" data-name="Path 302" d="M1183.287,391.1a1.83,1.83,0,0,1,.351-.217,3.321,3.321,0,0,1,1.653-.142s.339,0,.112-.159a3.49,3.49,0,0,0-2.028-.744,2.848,2.848,0,0,0-3.061,2.517,4.711,4.711,0,0,0,.285,1.8,2.355,2.355,0,0,0,2.085,1.637,3.343,3.343,0,0,0,2.765-.764c.01-.11-.071-.116-.128-.1s-2.067.256-2.4-.89a4.765,4.765,0,0,1-.071-2.177,1.773,1.773,0,0,1,.438-.754" transform="translate(-1157.737 -379.904)" fill="#fff"/>
      <path id="Path_303" data-name="Path 303" d="M1286.653,346.634h2.431l-2.407,2.74Z" transform="translate(-1239.659 -346.634)" fill="#0096d6"/>
      <path id="Path_304" data-name="Path 304" d="M1294.845,353.928V358.2l-3.754-4.287Z" transform="translate(-1243.078 -352.245)" fill="#fdbb30"/>
    </g>
    <path id="Path_305" data-name="Path 305" d="M1347.325,250.755h45.163v44.7h-45.163Z" transform="translate(-235.973 -0.002)" fill="#00529c" fill-rule="evenodd"/>
    <g id="Group_289" data-name="Group 289" transform="translate(1111.401 250.753)">
      <path id="Path_306" data-name="Path 306" d="M1456.585,272.243l16.55-21.49h-2.444l-16.6,21.49Z" transform="translate(-1429.619 -250.753)" fill="#ff1721"/>
      <path id="Path_307" data-name="Path 307" d="M1380.789,358.928c.759,2.122,2.322,7.644,2.943,8.084h-4.1a6.85,6.85,0,0,0-.193-1.448c-.177-.631-1.661-5.406-1.661-5.406h-6.518l-1.025,1.453s1.231,3.853,1.307,4.042c.133.341.721,1.36.721,1.36h-3.933s-.1-.589-.14-.833c-.031-.2-.373-1.282-.373-1.282a11.636,11.636,0,0,0-1.134,1.429c-.245.452-.354.686-.354.686h-3.076s-.1-.589-.141-.833c-.03-.2-.406-1.369-.406-1.369a15.483,15.483,0,0,0-1.106,1.5c-.244.453-.349.7-.349.7h-3.043s.86-.818,1.16-1.17c.507-.6,2.395-3.063,2.395-3.063l-.757-2.621h-6.468s-3.688,4.846-3.833,5a14.688,14.688,0,0,0-1.246,1.858h-1.919v-1.221a.928.928,0,0,1,.075-.073c.059-.043,2.8-3.441,5.31-6.79,2.259-2.921,4.379-5.762,4.565-6.033a18.96,18.96,0,0,0,1.1-2.068h3.344a14.916,14.916,0,0,0,.2,1.615c.087.279,2.124,6.964,2.172,7.036l1.127-1.441-1.927-5.928a10.565,10.565,0,0,0-.6-1.283h3.906a3.4,3.4,0,0,0,.128,1.062c.159.489,1,3.51,1,3.51s2.664-3.339,2.82-3.579a2.163,2.163,0,0,0,.329-.993h3.255a10.168,10.168,0,0,0-1.64,1.756c-.351.445-3.787,4.812-3.787,4.812s.3,1.022.446,1.531c.039.146.067.245.067.256s.076-.088.206-.256c.887-1.124,4.921-6.413,5.165-6.866a10.139,10.139,0,0,0,.657-1.234h3.175a8.219,8.219,0,0,0,.17,1.21Zm-4.832-5.007a43,43,0,0,1-3.21,4.344h4.346s-.843-2.594-.99-3.179a4.625,4.625,0,0,1-.086-1.136c0-.053-.009-.139-.06-.029Zm-16.7,0a43.018,43.018,0,0,1-3.21,4.344h4.346s-.842-2.594-.989-3.179a4.666,4.666,0,0,1-.085-1.136c0-.053-.01-.139-.062-.029Zm6.543,10.13,1.2-1.643c-.11-.118-.784-2.162-.784-2.162l-1.156,1.5Z" transform="translate(-1347.538 -327.847)" fill="#fff"/>
    </g>
  </g>
</svg>
