<svg xmlns="http://www.w3.org/2000/svg" width="940.676" height="433.962" viewBox="0 0 940.676 433.962">
  <g id="Group_702" data-name="Group 702" transform="translate(0 0)">
    <path id="Path_1502" data-name="Path 1502" d="M329.153,642.833c-22.523-14.678-38.9-41.062-35.548-67.736a123.863,123.863,0,0,0,76.435,37.278c11.219,1.123,23.814,1.2,31.781,9.181,4.957,4.964,7.064,12.219,7.172,19.234s-1.577,13.919-3.252,20.732l.411,1.7C379.287,662.231,351.676,657.511,329.153,642.833Z" transform="translate(-129.662 -233.019)" fill="#f0f0f0"/>
    <path id="Path_1503" data-name="Path 1503" d="M294.169,575.092a105.87,105.87,0,0,0,42.013,49.777,45.59,45.59,0,0,0,13.057,5.792,26.149,26.149,0,0,0,13.752-.528c4.18-1.223,8.313-2.957,12.718-3.142a16.011,16.011,0,0,1,12.09,5.027c3.962,3.993,6.252,9.171,8.316,14.313,2.292,5.709,4.582,11.675,9.25,15.9.566.512-.262,1.36-.827.848-8.121-7.357-9.015-19.159-15.4-27.694-2.979-3.982-7.175-7.091-12.306-7.223-4.487-.115-8.751,1.67-12.972,2.945a27.9,27.9,0,0,1-13.427,1.017,42.148,42.148,0,0,1-13.232-5.269,102.713,102.713,0,0,1-24.765-20.427,107.745,107.745,0,0,1-19.411-31.025c-.288-.7.857-1.015,1.142-.315Z" transform="translate(-129.662 -233.019)" fill="#fff"/>
    <path id="Path_1504" data-name="Path 1504" d="M329.878,621.438a15.884,15.884,0,0,1-20.255,3.572c-.657-.387-.085-1.426.572-1.038a14.708,14.708,0,0,0,18.835-3.361c.484-.589,1.329.241.848.827Z" transform="translate(-129.662 -233.019)" fill="#fff"/>
    <path id="Path_1505" data-name="Path 1505" d="M360.954,631.032a30.615,30.615,0,0,0-9.853-20.018c-.564-.514.264-1.362.827-.848a31.844,31.844,0,0,1,10.211,20.851c.062.761-1.123.772-1.185.015Z" transform="translate(-129.662 -233.019)" fill="#fff"/>
    <path id="Path_1506" data-name="Path 1506" d="M305.737,596.777a8.991,8.991,0,0,0,3.347-7.848c-.072-.76,1.113-.77,1.185-.015a10.075,10.075,0,0,1-3.683,8.69.612.612,0,0,1-.838.011.6.6,0,0,1-.011-.838Z" transform="translate(-129.662 -233.019)" fill="#fff"/>
    <path id="Path_1507" data-name="Path 1507" d="M370.433,526.285c.058.473.117.947.184,1.425A118.4,118.4,0,0,0,374.6,546.5c.134.477.278.959.425,1.431A124.827,124.827,0,0,0,396.5,588.566a121.223,121.223,0,0,0,12.53,13.5c6.233,5.766,13.45,11.523,17.3,18.8a20.8,20.8,0,0,1,1.087,2.333L408.2,662.59c-.089.068-.168.14-.257.208l-.7,1.608c-.248-.2-.5-.411-.748-.61-.144-.115-.284-.239-.428-.353-.095-.079-.189-.159-.279-.225-.032-.026-.063-.053-.086-.075-.09-.066-.167-.137-.248-.2q-2.124-1.77-4.23-3.576c-.009,0-.009,0-.014-.018-10.676-9.2-20.678-19.377-28.817-30.746-.245-.342-.5-.688-.735-1.048a115.679,115.679,0,0,1-9.609-16.248,102.264,102.264,0,0,1-4.016-9.536,85.036,85.036,0,0,1-5-26.114c-.568-17.768,4.553-35.519,16.475-48.4C369.818,526.931,370.119,526.61,370.433,526.285Z" transform="translate(-129.662 -233.019)" fill="#f0f0f0"/>
    <path id="Path_1508" data-name="Path 1508" d="M370.89,526.618a105.87,105.87,0,0,0,3.576,65.039,45.592,45.592,0,0,0,6.938,12.486A26.149,26.149,0,0,0,392.7,612c4.073,1.54,8.418,2.644,12.046,5.148a16.011,16.011,0,0,1,6.627,11.293c.759,5.573-.529,11.087-1.977,16.435-1.607,5.938-3.371,12.08-2.189,18.266.143.75-1.028.928-1.171.179-2.055-10.763,4.337-20.725,4.379-31.383.019-4.973-1.46-9.982-5.477-13.176-3.513-2.793-7.993-3.935-12.13-5.459a27.9,27.9,0,0,1-11.333-7.272,42.148,42.148,0,0,1-7.393-12.174,102.711,102.711,0,0,1-7.475-31.22,107.747,107.747,0,0,1,3.18-36.459c.194-.735,1.295-.294,1.1.436Z" transform="translate(-129.662 -233.019)" fill="#fff"/>
    <path id="Path_1509" data-name="Path 1509" d="M371.5,585.122a15.884,15.884,0,0,1-18.323-9.343c-.291-.7.79-1.19,1.082-.484a14.708,14.708,0,0,0,17.062,8.656c.741-.179.916.993.179,1.171Z" transform="translate(-129.662 -233.019)" fill="#fff"/>
    <path id="Path_1510" data-name="Path 1510" d="M390.534,611.492a30.615,30.615,0,0,0,4.185-21.915c-.14-.75,1.031-.928,1.171-.179a31.844,31.844,0,0,1-4.4,22.8c-.409.645-1.361-.059-.955-.7Z" transform="translate(-129.662 -233.019)" fill="#fff"/>
    <path id="Path_1511" data-name="Path 1511" d="M367.07,550.9a8.991,8.991,0,0,0,7.4-4.251c.4-.65,1.353.055.955.7a10.075,10.075,0,0,1-8.173,4.721.612.612,0,0,1-.675-.5.6.6,0,0,1,.5-.675Z" transform="translate(-129.662 -233.019)" fill="#fff"/>
    <path id="Path_1512" data-name="Path 1512" d="M1016.5,642.833c22.523-14.678,38.9-41.062,35.548-67.736a123.863,123.863,0,0,1-76.435,37.278c-11.219,1.123-23.814,1.2-31.781,9.181-4.957,4.964-7.064,12.219-7.172,19.234s1.577,13.919,3.252,20.732l-.411,1.7C966.366,662.231,993.978,657.511,1016.5,642.833Z" transform="translate(-129.662 -233.019)" fill="#f0f0f0"/>
    <path id="Path_1513" data-name="Path 1513" d="M1051.48,575.092a105.87,105.87,0,0,1-42.013,49.777,45.591,45.591,0,0,1-13.057,5.792,26.149,26.149,0,0,1-13.752-.528c-4.18-1.223-8.313-2.957-12.718-3.142a16.01,16.01,0,0,0-12.09,5.027c-3.962,3.993-6.252,9.171-8.316,14.313-2.292,5.709-4.582,11.675-9.25,15.9-.566.512.262,1.36.827.848,8.121-7.357,9.015-19.159,15.4-27.694,2.979-3.982,7.175-7.091,12.306-7.223,4.487-.115,8.751,1.67,12.972,2.945a27.9,27.9,0,0,0,13.427,1.017,42.149,42.149,0,0,0,13.232-5.269,102.708,102.708,0,0,0,24.765-20.427,107.743,107.743,0,0,0,19.411-31.025c.288-.7-.857-1.014-1.142-.315Z" transform="translate(-129.662 -233.019)" fill="#fff"/>
    <path id="Path_1514" data-name="Path 1514" d="M1015.78,621.438a15.884,15.884,0,0,0,20.255,3.572c.657-.387.085-1.426-.572-1.038a14.708,14.708,0,0,1-18.835-3.361c-.484-.589-1.329.241-.848.827Z" transform="translate(-129.662 -233.019)" fill="#fff"/>
    <path id="Path_1515" data-name="Path 1515" d="M984.7,631.032a30.615,30.615,0,0,1,9.853-20.018c.564-.514-.264-1.362-.827-.848a31.844,31.844,0,0,0-10.211,20.851C983.452,631.778,984.637,631.789,984.7,631.032Z" transform="translate(-129.662 -233.019)" fill="#fff"/>
    <path id="Path_1516" data-name="Path 1516" d="M1039.92,596.777a8.991,8.991,0,0,1-3.347-7.848c.072-.76-1.113-.77-1.185-.015a10.075,10.075,0,0,0,3.683,8.69.612.612,0,0,0,.838.011A.6.6,0,0,0,1039.92,596.777Z" transform="translate(-129.662 -233.019)" fill="#fff"/>
    <path id="Path_1517" data-name="Path 1517" d="M975.221,526.285c-.058.473-.117.947-.184,1.425a118.4,118.4,0,0,1-3.986,18.789c-.134.477-.278.959-.426,1.432a124.828,124.828,0,0,1-21.468,40.635,121.232,121.232,0,0,1-12.53,13.5c-6.233,5.767-13.45,11.523-17.3,18.8a20.8,20.8,0,0,0-1.087,2.333l19.216,39.394c.089.068.168.14.257.208l.7,1.608c.248-.2.5-.411.748-.61.144-.115.284-.239.428-.353.095-.079.189-.159.279-.225.032-.026.063-.053.086-.075.09-.066.167-.137.248-.2q2.124-1.77,4.23-3.576c.009,0,.009,0,.014-.018,10.676-9.2,20.678-19.377,28.817-30.746.245-.342.5-.688.735-1.048a115.665,115.665,0,0,0,9.609-16.248,102.333,102.333,0,0,0,4.016-9.536,85.033,85.033,0,0,0,5-26.114c.568-17.768-4.553-35.519-16.476-48.4C975.836,526.931,975.535,526.61,975.221,526.285Z" transform="translate(-129.662 -233.019)" fill="#f0f0f0"/>
    <path id="Path_1518" data-name="Path 1518" d="M974.764,526.618a105.869,105.869,0,0,1-3.576,65.039,45.592,45.592,0,0,1-6.938,12.486,26.147,26.147,0,0,1-11.3,7.858c-4.073,1.54-8.418,2.644-12.046,5.148a16.011,16.011,0,0,0-6.627,11.293c-.759,5.573.529,11.087,1.977,16.435,1.607,5.938,3.371,12.08,2.19,18.266-.143.75,1.028.928,1.171.179,2.055-10.763-4.337-20.725-4.379-31.383-.019-4.973,1.46-9.982,5.477-13.176,3.513-2.793,7.993-3.935,12.13-5.459a27.9,27.9,0,0,0,11.333-7.272,42.148,42.148,0,0,0,7.393-12.174,102.716,102.716,0,0,0,7.475-31.22,107.745,107.745,0,0,0-3.18-36.459c-.194-.735-1.295-.294-1.1.436Z" transform="translate(-129.662 -233.019)" fill="#fff"/>
    <path id="Path_1519" data-name="Path 1519" d="M974.157,585.122a15.884,15.884,0,0,0,18.323-9.343c.291-.7-.79-1.19-1.082-.484a14.708,14.708,0,0,1-17.062,8.656c-.741-.179-.916.993-.179,1.171Z" transform="translate(-129.662 -233.019)" fill="#fff"/>
    <path id="Path_1520" data-name="Path 1520" d="M955.12,611.492a30.614,30.614,0,0,1-4.185-21.915c.14-.75-1.031-.928-1.171-.179a31.845,31.845,0,0,0,4.4,22.8c.409.645,1.362-.059.955-.7Z" transform="translate(-129.662 -233.019)" fill="#fff"/>
    <path id="Path_1521" data-name="Path 1521" d="M978.584,550.9a8.991,8.991,0,0,1-7.4-4.251c-.4-.65-1.353.055-.955.7a10.075,10.075,0,0,0,8.173,4.721.612.612,0,0,0,.675-.5A.6.6,0,0,0,978.584,550.9Z" transform="translate(-129.662 -233.019)" fill="#fff"/>
    <path id="Path_1522" data-name="Path 1522" d="M373.514,513.394a6.8,6.8,0,0,1-1.614-10.306l-11.981-21,12.537.81,9.455,19.817a6.84,6.84,0,0,1-8.4,10.678Z" transform="translate(-129.662 -233.019)" fill="#ffb6b6"/>
    <path id="Path_1523" data-name="Path 1523" d="M151.623,423.528h8.295l3.946-31.993H151.622Z" fill="#ffb6b6"/>
    <path id="Path_1524" data-name="Path 1524" d="M279.17,653.839h16.335a10.41,10.41,0,0,1,10.41,10.409v.339H279.171Z" transform="translate(-129.662 -233.019)" fill="#2f2e41"/>
    <path id="Path_1525" data-name="Path 1525" d="M208.454,423.528h8.294l3.946-31.993H208.452Z" fill="#ffb6b6"/>
    <path id="Path_1526" data-name="Path 1526" d="M336,653.839h16.335a10.41,10.41,0,0,1,10.41,10.409v.339H336Z" transform="translate(-129.662 -233.019)" fill="#2f2e41"/>
    <path id="Path_1527" data-name="Path 1527" d="M359.444,482.991s2.281,32.489-2.212,48.851-5.3,115.312-5.3,115.312h-15.06L323.822,512.463l-30.1,135.166-14.346-.986,7.867-159.275Z" transform="translate(-129.662 -233.019)" fill="#2f2e41"/>
    <path id="Path_1528" data-name="Path 1528" d="M293.473,373.473l11.514-8.4,19.293,4.2,5.223,12.409,9,4.462A20.4,20.4,0,0,1,349.629,401.5l12.856,88.78-75.236-2.908-9.108-104.556a8.2,8.2,0,0,1,7.69-8.895Z" transform="translate(-129.662 -233.019)" fill="#3f3d56"/>
    <path id="Path_1529" data-name="Path 1529" d="M213.6,160.059l6.949,9.367,30.266,92.312-14.187,5.68L213.911,224.4Z" fill="#3f3d56"/>
    <circle id="Ellipse_341" data-name="Ellipse 341" cx="16.804" cy="16.804" r="16.804" transform="translate(171.607 94.057)" fill="#ffb9b9"/>
    <path id="Path_1530" data-name="Path 1530" d="M151.778,180l27.422,38.14,30.652,19.988Z" opacity="0.1"/>
    <path id="Path_1531" data-name="Path 1531" d="M309.168,356.028c-1.169-2.334-2.371-4.874-1.925-7.445s3.4-4.812,5.675-3.537c.945-3.415,5.128-4.91,8.649-4.515s6.764,2.093,10.231,2.822,7.678.151,9.552-2.856l-4.484-.078L341.537,335l-5.413-.4c1.875-2.023,1.377-5.461-.438-7.538s-4.569-3.06-7.257-3.682A40.428,40.428,0,0,0,312.087,323a21.246,21.246,0,0,0-7.261,2.527,14.444,14.444,0,0,0-5.076,5.264,17.377,17.377,0,0,0-2.062,7.919,22.145,22.145,0,0,0,9.757,18.837" transform="translate(-129.662 -233.019)" fill="#2f2e41"/>
    <path id="Path_1532" data-name="Path 1532" d="M934.835,665.019H413.347a20.279,20.279,0,0,1-20.256-20.256V253.275a20.279,20.279,0,0,1,20.256-20.256H934.835a20.279,20.279,0,0,1,20.256,20.256V644.763A20.279,20.279,0,0,1,934.835,665.019Z" transform="translate(-129.662 -233.019)" fill="#e4e4e4"/>
    <path id="Path_1533" data-name="Path 1533" d="M803.587,412.769h-80.5a15,15,0,0,1,0-30h80.5a15,15,0,0,1,0,30Z" transform="translate(-129.662 -233.019)" fill="#fff"/>
    <path id="Path_1534" data-name="Path 1534" d="M733.087,453.769h-19a5.5,5.5,0,0,1,0-11h19a5.5,5.5,0,0,1,0,11Z" transform="translate(-129.662 -233.019)" fill="#fff"/>
    <path id="Path_1535" data-name="Path 1535" d="M812.087,453.769h-19a5.5,5.5,0,0,1,0-11h19a5.5,5.5,0,0,1,0,11Z" transform="translate(-129.662 -233.019)" fill="#fff"/>
    <path id="Path_1536" data-name="Path 1536" d="M772.087,453.769h-19a5.5,5.5,0,0,1,0-11h19a5.5,5.5,0,1,1,0,11Z" transform="translate(-129.662 -233.019)" fill="#fff"/>
    <path id="Path_1537" data-name="Path 1537" d="M733.087,474.769h-19a5.5,5.5,0,0,1,0-11h19a5.5,5.5,0,0,1,0,11Z" transform="translate(-129.662 -233.019)" fill="#fff"/>
    <path id="Path_1538" data-name="Path 1538" d="M812.087,474.769h-19a5.5,5.5,0,0,1,0-11h19a5.5,5.5,0,0,1,0,11Z" transform="translate(-129.662 -233.019)" fill="#fff"/>
    <path id="Path_1539" data-name="Path 1539" d="M772.087,474.769h-19a5.5,5.5,0,0,1,0-11h19a5.5,5.5,0,1,1,0,11Z" transform="translate(-129.662 -233.019)" fill="#fff"/>
    <path id="Path_1540" data-name="Path 1540" d="M733.087,495.769h-19a5.5,5.5,0,1,1,0-11h19a5.5,5.5,0,0,1,0,11Z" transform="translate(-129.662 -233.019)" fill="#fff"/>
    <path id="Path_1541" data-name="Path 1541" d="M812.087,495.769h-19a5.5,5.5,0,1,1,0-11h19a5.5,5.5,0,0,1,0,11Z" transform="translate(-129.662 -233.019)" fill="#fff"/>
    <path id="Path_1542" data-name="Path 1542" d="M772.087,495.769h-19a5.5,5.5,0,0,1,0-11h19a5.5,5.5,0,1,1,0,11Z" transform="translate(-129.662 -233.019)" fill="#fff"/>
    <path id="Path_1543" data-name="Path 1543" d="M733.087,516.769h-19a5.5,5.5,0,1,1,0-11h19a5.5,5.5,0,0,1,0,11Z" transform="translate(-129.662 -233.019)" fill="#fff"/>
    <path id="Path_1544" data-name="Path 1544" d="M812.087,516.769h-19a5.5,5.5,0,1,1,0-11h19a5.5,5.5,0,0,1,0,11Z" transform="translate(-129.662 -233.019)" fill="#fff"/>
    <path id="Path_1545" data-name="Path 1545" d="M772.087,516.769h-19a5.5,5.5,0,0,1,0-11h19a5.5,5.5,0,0,1,0,11Z" transform="translate(-129.662 -233.019)" fill="#fff"/>
    <circle id="Ellipse_342" data-name="Ellipse 342" cx="51" cy="51" r="51" transform="translate(423.924 159.75)" fill="#cacaca"/>
    <path id="Path_1546" data-name="Path 1546" d="M604.587,506.269a15.017,15.017,0,0,1-15-15v-95a15,15,0,0,1,30,0v95A15.017,15.017,0,0,1,604.587,506.269Z" transform="translate(-129.662 -233.019)" fill="#fff"/>
    <path id="Path_1547" data-name="Path 1547" d="M737.823,406.328h-14a2,2,0,0,1,0-4h14a2,2,0,0,1,0,4Z" transform="translate(-129.662 -233.019)" fill="#e4e4e4"/>
    <path id="Path_1548" data-name="Path 1548" d="M759.823,406.828h-14a2,2,0,0,1,0-4h14a2,2,0,0,1,0,4Z" transform="translate(-129.662 -233.019)" fill="#e4e4e4"/>
    <path id="Path_1549" data-name="Path 1549" d="M781.823,407.328h-14a2,2,0,0,1,0-4h14a2,2,0,0,1,0,4Z" transform="translate(-129.662 -233.019)" fill="#e4e4e4"/>
    <path id="Path_1550" data-name="Path 1550" d="M803.823,407.828h-14a2,2,0,0,1,0-4h14a2,2,0,0,1,0,4Z" transform="translate(-129.662 -233.019)" fill="#e4e4e4"/>
    <path id="Path_1551" data-name="Path 1551" d="M459.587,603.268a18.694,18.694,0,0,0,5.56,13.31h-8.261a18.559,18.559,0,0,1-18.559-18.559V297.137a18.559,18.559,0,0,1,18.559-18.559h12.021a18.744,18.744,0,0,0-9.32,16.2Z" transform="translate(-129.662 -233.019)" fill="#cacaca"/>
    <path id="Path_1552" data-name="Path 1552" d="M1069.15,666.981h-938.3a1.191,1.191,0,1,1,0-2.381h938.294a1.191,1.191,0,0,1,0,2.381Z" transform="translate(-129.662 -233.019)" fill="#cacaca"/>
    <path id="Path_1553" data-name="Path 1553" d="M457.587,366.5q-9.48-2.655-19.03-4.92a543.569,543.569,0,0,0-66.09-11.52,14.785,14.785,0,0,0-18.03,10.41l-11.11,41a14.777,14.777,0,0,0,10.39,18.11l.15.03c14.7,1.67,29.54,3.99,44.3,6.95,1.32.26,2.63.53,3.95.81q7.1,1.47,14.15,3.14c2.06.48,4.11.98,6.17,1.49q8.31,2.07,16.63,4.41,9.255,2.61,18.52,5.57c.67.2,1.34.41,2,.63v-75.54C458.927,366.868,458.257,366.678,457.587,366.5Z" transform="translate(-129.662 -233.019)" fill="#fff"/>
    <path id="Path_1554" data-name="Path 1554" d="M457.587,366.5q-9.48-2.655-19.03-4.92a543.569,543.569,0,0,0-66.09-11.52,14.785,14.785,0,0,0-18.03,10.41l-11.11,41a14.777,14.777,0,0,0,10.39,18.11l.15.03c14.7,1.67,29.54,3.99,44.3,6.95,1.32.26,2.63.53,3.95.81q7.1,1.47,14.15,3.14c2.06.48,4.11.98,6.17,1.49q8.31,2.07,16.63,4.41,9.255,2.61,18.52,5.57c.67.2,1.34.41,2,.63V440.5c-.67-.21-1.34-.42-2-.63q-8.52-2.715-17.02-5.11-3.18-.915-6.36-1.77-5.73-1.545-11.43-2.96-3.03-.765-6.05-1.47c-.15-.04-.31-.07-.46-.11q-5.145-1.215-10.31-2.32c-1.32-.28-2.64-.56-3.96-.83-15.92-3.3-31.96-5.87-47.83-7.67a12.777,12.777,0,0,1-8.91-15.63l11.11-41.01a12.767,12.767,0,0,1,15.65-8.97l.15.02a541.786,541.786,0,0,1,65.26,11.32c.22.06.44.11.66.16q9.781,2.34,19.5,5.06c.66.18,1.33.37,2,.57v-2.08C458.927,366.868,458.257,366.678,457.587,366.5Z" transform="translate(-129.662 -233.019)" fill="#2981da"/>
    <path id="Path_1555" data-name="Path 1555" d="M459.587,368.108v73.44c-.67-.22-1.33-.43-2-.64q-8.865-2.835-17.79-5.34-8.566-2.43-17.19-4.57c-2.04-.5-4.07-.99-6.11-1.47-.08-.36-.16-.72-.23-1.08-.37-1.72-.66-3.46-.88-5.21-.1-.67-.17-1.34-.24-2.02a69.067,69.067,0,0,1,22.28-57.86c.29-.28.59-.55.89-.81q9.69,2.31,19.27,5C458.257,367.718,458.927,367.908,459.587,368.108Z" transform="translate(-129.662 -233.019)" fill="#2981da"/>
    <path id="Path_1556" data-name="Path 1556" d="M393.177,398.178l-27.81-3.28a7.5,7.5,0,1,0-1.76,14.9l27.81,3.28a7.5,7.5,0,1,0,1.76-14.9Zm4.58,8.1a5.506,5.506,0,0,1-6.11,4.81l-27.81-3.28a5.5,5.5,0,1,1,1.29-10.92l27.81,3.28a5.52,5.52,0,0,1,4.82,6.11Z" transform="translate(-129.662 -233.019)" fill="#2981da"/>
    <path id="Path_1557" data-name="Path 1557" d="M459.587,385.308v34.83a16.3,16.3,0,0,1-2,1.02,20.168,20.168,0,0,1-21.84-3.54c-.28-.25-.56-.52-.83-.8s-.53-.56-.78-.85a20.187,20.187,0,0,1,23.45-31.69,20.907,20.907,0,0,1,2,1.03Z" transform="translate(-129.662 -233.019)" fill="#fff"/>
    <path id="Path_1558" data-name="Path 1558" d="M457.587,410.518q-11.8,2.46-23.45,5.45-4.35,1.11-8.67,2.3-5.16,1.425-10.32,2.95-6.584,1.95-13.15,4.08c-1.27.42-2.55.84-3.83,1.26-12.17,4.06-24.26,8.56-36.15,13.47a14.787,14.787,0,0,0-10.79,17.81l10.03,41.28a14.779,14.779,0,0,0,17.83,10.86l.14-.05a533.852,533.852,0,0,1,59.93-20.52q9.12-2.535,18.43-4.78c.67-.16,1.33-.32,2-.47v-74.05C458.917,410.228,458.257,410.368,457.587,410.518Z" transform="translate(-129.662 -233.019)" fill="#fff"/>
    <path id="Path_1559" data-name="Path 1559" d="M457.587,410.518q-11.8,2.46-23.45,5.45-4.35,1.11-8.67,2.3-5.16,1.425-10.32,2.95-6.584,1.95-13.15,4.08c-1.27.42-2.55.84-3.83,1.26-12.17,4.06-24.26,8.56-36.15,13.47a14.787,14.787,0,0,0-10.79,17.81l10.03,41.28a14.779,14.779,0,0,0,17.83,10.86l.14-.05a533.852,533.852,0,0,1,59.93-20.52q9.12-2.535,18.43-4.78c.67-.16,1.33-.32,2-.47V482.1l-2,.48-1.51.36q-8.82,2.145-17.45,4.54c-.15.04-.31.09-.46.13a533.354,533.354,0,0,0-59.63,20.45,12.788,12.788,0,0,1-15.34-9.41l-10.02-41.28a12.772,12.772,0,0,1,9.38-15.41l.15-.05c12.95-5.36,26.13-10.22,39.41-14.54,1.28-.42,2.56-.83,3.84-1.24q4.71-1.485,9.43-2.89,4.98-1.485,9.95-2.86l.66-.18q4.86-1.335,9.75-2.58,10.845-2.76,21.84-5.07c.66-.14,1.33-.28,2-.41v-2.03C458.917,410.228,458.257,410.368,457.587,410.518Z" transform="translate(-129.662 -233.019)" fill="#2981da"/>
    <path id="Path_1560" data-name="Path 1560" d="M459.587,411.118v72.01c-.66.15-1.33.3-2,.46q-9.39,2.28-18.7,4.86-.375-.42-.72-.84A69.12,69.12,0,0,1,422.437,432c.05-.33.11-.67.17-1s.11-.65.17-.97a68.5,68.5,0,0,1,2.56-9.65c.13-.38.26-.76.4-1.14q4.575-1.26,9.18-2.42,11.265-2.91,22.67-5.29C458.247,411.378,458.917,411.248,459.587,411.118Z" transform="translate(-129.662 -233.019)" fill="#2981da"/>
    <path id="Path_1561" data-name="Path 1561" d="M413.117,476.348a7.509,7.509,0,0,0-9.77-4.13l-25.95,10.52a7.5,7.5,0,0,0,5.64,13.9l25.95-10.52a7.517,7.517,0,0,0,4.13-9.77Zm-4.88,7.91-25.95,10.53a5.5,5.5,0,0,1-4.14-10.2l25.95-10.52a5.5,5.5,0,1,1,4.14,10.19Z" transform="translate(-129.662 -233.019)" fill="#2981da"/>
    <path id="Path_1562" data-name="Path 1562" d="M459.587,429.508v39.21a19.622,19.622,0,0,1-2,.4,20.205,20.205,0,0,1-18.52-32.71c.23-.29.47-.57.73-.84.24-.28.5-.55.77-.81a20.2,20.2,0,0,1,17.02-5.64,17.209,17.209,0,0,1,2,.39Z" transform="translate(-129.662 -233.019)" fill="#fff"/>
    <path id="Path_1563" data-name="Path 1563" d="M457.587,361.288V461.1c.67-.22,1.34-.43,2-.63V362.2C458.917,361.888,458.257,361.588,457.587,361.288Zm0,0V461.1c.67-.22,1.34-.43,2-.63V362.2C458.917,361.888,458.257,361.588,457.587,361.288Zm0,0V461.1c.67-.22,1.34-.43,2-.63V362.2C458.917,361.888,458.257,361.588,457.587,361.288Zm0,7.29v115.01c.67-.16,1.34-.31,2-.46V369.148C458.917,368.948,458.247,368.758,457.587,368.578Zm0,0v115.01c.67-.16,1.34-.31,2-.46V369.148C458.917,368.948,458.247,368.758,457.587,368.578Zm0,0v115.01c.67-.16,1.34-.31,2-.46V369.148C458.917,368.948,458.247,368.758,457.587,368.578Zm0,0v115.01c.67-.16,1.34-.31,2-.46V369.148C458.917,368.948,458.247,368.758,457.587,368.578Zm0,0v116.05c.67-.16,1.33-.32,2-.47V369.148C458.917,368.948,458.247,368.758,457.587,368.578Zm436.25-94.56H478.347a20.8,20.8,0,0,0-20.76,20.76v308.49a20.786,20.786,0,0,0,20.76,20.75h415.49a20.775,20.775,0,0,0,20.75-20.75V294.778a20.777,20.777,0,0,0-20.75-20.76Zm18.75,329.25a18.769,18.769,0,0,1-18.75,18.75H478.347a18.778,18.778,0,0,1-18.76-18.75V294.778a18.788,18.788,0,0,1,18.76-18.76h415.49a18.772,18.772,0,0,1,18.75,18.76Zm-455-234.69v114l2-.48V369.148c-.67-.2-1.34-.39-2-.57Zm0,0v115.01c.67-.16,1.34-.31,2-.46V369.148c-.67-.2-1.34-.39-2-.57Zm0,0v115.01c.67-.16,1.34-.31,2-.46V369.148c-.67-.2-1.34-.39-2-.57Zm0,0v115.01c.67-.16,1.34-.31,2-.46V369.148c-.67-.2-1.34-.39-2-.57Zm0-7.29V461.1c.67-.22,1.34-.43,2-.63V362.2c-.67-.31-1.33-.61-2-.91Zm0,0V461.1c.67-.22,1.34-.43,2-.63V362.2c-.67-.31-1.33-.61-2-.91Z" transform="translate(-129.662 -233.019)" fill="#2f2e41"/>
    <path id="Path_1564" data-name="Path 1564" d="M368.513,466.893a6.8,6.8,0,0,0-9.99-3l-19.171-14.73-.906,12.53,18.344,12.067a6.84,6.84,0,0,0,11.723-6.864Z" transform="translate(-129.662 -233.019)" fill="#ffb6b6"/>
    <path id="Path_1565" data-name="Path 1565" d="M291.262,377.995l-6.308-2.981s-10.163,2.859-5.225,16.3l29.879,55.664,36.479,21.357,11.372-10.077L320.954,429.37Z" transform="translate(-129.662 -233.019)" fill="#3f3d56"/>
  </g>
</svg>
