<svg id="Group_700" data-name="Group 700" xmlns="http://www.w3.org/2000/svg" width="604.009" height="403.885" viewBox="0 0 604.009 403.885">
  <rect id="Rectangle_791" data-name="Rectangle 791" width="444.545" height="284.706" transform="translate(0.19 0.252)" fill="#e6e6e6"/>
  <rect id="Rectangle_792" data-name="Rectangle 792" width="419.122" height="108.533" transform="translate(12.901 35.961)" fill="#fff"/>
  <rect id="Rectangle_793" data-name="Rectangle 793" width="88.635" height="5.088" transform="translate(117.154 51.638)" fill="#e6e6e6"/>
  <rect id="Rectangle_794" data-name="Rectangle 794" width="136.872" height="5.088" transform="translate(117.154 70.198)" fill="#ee6973"/>
  <rect id="Rectangle_795" data-name="Rectangle 795" width="111.547" height="5.088" transform="translate(117.154 87.684)" fill="#e6e6e6"/>
  <rect id="Rectangle_796" data-name="Rectangle 796" width="65.12" height="5.088" transform="translate(117.154 105.104)" fill="#e6e6e6"/>
  <rect id="Rectangle_797" data-name="Rectangle 797" width="98.282" height="5.088" transform="translate(117.154 122.523)" fill="#e6e6e6"/>
  <rect id="Rectangle_798" data-name="Rectangle 798" width="10.853" height="10.853" transform="translate(76.756 49.829)" fill="#e6e6e6"/>
  <rect id="Rectangle_799" data-name="Rectangle 799" width="10.853" height="10.853" transform="translate(76.756 67.315)" fill="#ee6973"/>
  <rect id="Rectangle_800" data-name="Rectangle 800" width="10.853" height="10.853" transform="translate(76.756 84.801)" fill="#e6e6e6"/>
  <rect id="Rectangle_801" data-name="Rectangle 801" width="10.853" height="10.853" transform="translate(76.756 102.287)" fill="#e6e6e6"/>
  <rect id="Rectangle_802" data-name="Rectangle 802" width="10.853" height="10.853" transform="translate(76.756 119.772)" fill="#e6e6e6"/>
  <rect id="Rectangle_803" data-name="Rectangle 803" width="36.177" height="36.177" transform="translate(337.234 74.55)" fill="#e6e6e6"/>
  <rect id="Rectangle_804" data-name="Rectangle 804" width="419.122" height="108.533" transform="translate(12.901 159.568)" fill="#fff"/>
  <rect id="Rectangle_805" data-name="Rectangle 805" width="10.853" height="10.853" transform="translate(95.448 169.214)" fill="#e6e6e6"/>
  <rect id="Rectangle_806" data-name="Rectangle 806" width="10.853" height="10.853" transform="translate(76.756 169.214)" fill="#ee6973"/>
  <path id="Path_1449" data-name="Path 1449" d="M494.549,421.945a41.1,41.1,0,0,0-66.345-6.129l-2.645-2.311a44.6,44.6,0,0,1,72.012,6.651Z" transform="translate(-233.774 -228.998)" fill="#e6e6e6"/>
  <path id="Path_1450" data-name="Path 1450" d="M535.669,480.478l-2.915-1.96a41.119,41.119,0,0,0,1.26-43.8l3.023-1.789A44.631,44.631,0,0,1,535.669,480.478Z" transform="translate(-273.239 -241.773)" fill="#ee6973"/>
  <path id="Path_1451" data-name="Path 1451" d="M419.511,481.5a44.6,44.6,0,0,1-.366-59.09l2.645,2.311a41.089,41.089,0,0,0,.337,54.435Z" transform="translate(-227.36 -237.898)" fill="#ee6973"/>
  <path id="Path_1452" data-name="Path 1452" d="M459.373,526.79a44.676,44.676,0,0,1-33.235-14.857l2.616-2.343a41.1,41.1,0,0,0,64.748-4.51l2.915,1.96a44.579,44.579,0,0,1-37.045,19.75Z" transform="translate(-233.987 -268.335)" fill="#ee6973"/>
  <rect id="Rectangle_807" data-name="Rectangle 807" width="36.177" height="36.177" transform="translate(337.234 192.731)" fill="#e6e6e6"/>
  <rect id="Rectangle_808" data-name="Rectangle 808" width="36.177" height="36.177" transform="translate(75.249 216.246)" fill="#e6e6e6"/>
  <rect id="Rectangle_809" data-name="Rectangle 809" width="444.545" height="18.886" fill="#ee6973"/>
  <circle id="Ellipse_331" data-name="Ellipse 331" cx="3.5" cy="3.5" r="3.5" transform="translate(10.534 6.155)" fill="#fff"/>
  <circle id="Ellipse_332" data-name="Ellipse 332" cx="3.5" cy="3.5" r="3.5" transform="translate(23.821 6.155)" fill="#fff"/>
  <circle id="Ellipse_333" data-name="Ellipse 333" cx="3.5" cy="3.5" r="3.5" transform="translate(37.107 6.155)" fill="#fff"/>
  <path id="Path_1453" data-name="Path 1453" d="M817.167,603.477h9l4.282-34.713H817.165Z" transform="translate(-300.85 -209.398)" fill="#ffb8b8"/>
  <path id="Path_1454" data-name="Path 1454" d="M935.558,749.442h17.724a11.3,11.3,0,0,1,11.295,11.294v.368H935.559Z" transform="translate(-421.537 -358.3)" fill="#2f2e41"/>
  <path id="Path_1455" data-name="Path 1455" d="M781.694,554.84l6.641,6.074,26.587-22.726-9.8-8.964Z" transform="translate(-287.791 -194.841)" fill="#ffb8b8"/>
  <path id="Path_1456" data-name="Path 1456" d="M899.589,694.271l13.079,11.961h0a11.3,11.3,0,0,1,.712,15.957l-.248.271-21.414-19.584Z" transform="translate(-405.397 -337.989)" fill="#2f2e41"/>
  <path id="Path_1457" data-name="Path 1457" d="M821.348,425.57,818.8,476.584l6.377,55.478-19.131,2.551-12.115-70.145L790.1,416.642Z" transform="translate(-290.886 -153.392)" fill="#2f2e41"/>
  <path id="Path_1458" data-name="Path 1458" d="M973.341,516.657s7.652,50.377-8.29,66.956-37.623,45.913-37.623,45.913l-15.3-19.131,38.9-41.449-7.652-28.058-31.246-14.667,5.1-35.072,45.913-.638Z" transform="translate(-412.91 -262.972)" fill="#2f2e41"/>
  <circle id="Ellipse_334" data-name="Ellipse 334" cx="15.617" cy="15.617" r="15.617" transform="translate(509.701 105.755)" fill="#ffb8b8"/>
  <path id="Path_1459" data-name="Path 1459" d="M834.361,227.224l2.392,3.624L843.13,248.7l-5.1,69.507-29.971.638-3.826-79.71,8.015-10.018Z" transform="translate(-296.088 -83.655)" fill="#ccc"/>
  <path id="Path_1460" data-name="Path 1460" d="M898.162,379.124l-5.1-.638s-1.275.638-1.913,5.1-8.29,44-8.29,44l10.2,48.464,11.478-15.3-7.014-26.782,7.014-26.783Z" transform="translate(-402.135 -221.729)" fill="#2f2e41"/>
  <path id="Path_1461" data-name="Path 1461" d="M883.54,248.1h3.826l9.565,51.651L888,339.924l-8.928-14.667,2.551-15.942-1.275-14.029L875.888,287Z" transform="translate(-322.47 -91.341)" fill="#2f2e41"/>
  <path id="Path_1462" data-name="Path 1462" d="M951.913,308.379l-2.84-.71s-2.13-12.068-7.1-10.648-17.747,2.84-17.747-2.84,12.068-10.648,19.167-9.938,16.165,3.065,18.457,13.488c3.674,16.708-7.58,20.929-7.58,20.929l.187-.608a9.475,9.475,0,0,0-2.545-9.672Z" transform="translate(-417.365 -187.007)" fill="#2f2e41"/>
  <path id="Path_1463" data-name="Path 1463" d="M900.015,370.5l20.406-8.29L925.2,358.7l14.348,63.449,9.565-28.7-2.87-36.667L972.71,370.5l-8.928,43.362-1.275,16.58,3.826,13.391s13.391,9.565,8.927,19.768-9.565,10.841-9.565,10.841-21.681-20.406-22.956-25.507-3.188-14.029-3.188-14.029-10.841,40.811-23.594,40.174S903.2,461.048,903.2,461.048l3.188-14.029,5.1-14.667-2.551-24.232Z" transform="translate(-408.451 -213.74)" fill="#2f2e41"/>
  <path id="Path_1464" data-name="Path 1464" d="M977.944,768.876H808.612a.632.632,0,0,1,0-1.264H977.944a.632.632,0,0,1,0,1.264Z" transform="translate(-374.567 -364.99)" fill="#ccc"/>
</svg>
