<svg id="Group_678" data-name="Group 678" xmlns="http://www.w3.org/2000/svg" width="43.032" height="43.032" viewBox="0 0 43.032 43.032">
  <path id="Path_227" data-name="Path 227" d="M4290.826,253.732a13.985,13.985,0,0,0-5.632-11.818,10.1,10.1,0,0,0-11.857.019,13.047,13.047,0,0,0-5.227,7.988c-.286,1.224-.363,2.5-.544,3.81Z" transform="translate(-4257.762 -228.596)" fill="#00529c"/>
  <path id="Path_228" data-name="Path 228" d="M4222,310.043c.916-1.571,1.943-2.148,3.264-1.817a2.822,2.822,0,0,1,2.129,2.413c.949,4.116,3.029,7.44,7.274,8.689a14.348,14.348,0,0,0,11.621-1.125,7.013,7.013,0,0,0,.565-.429c-1.574-1.354-3.178-2.631-5.226-2.726-2.388-.11-4.794.158-7.192.266-.285.013-.57.064-.856.072a2.712,2.712,0,0,1-2.926-2.405,2.612,2.612,0,0,1,2.615-2.7c3.292-.167,6.585-.332,9.879-.4,3.116-.066,6.238.073,9.352-.031a19.7,19.7,0,0,1,7.265,1.171c1.754.615,3.512,1.217,5.269,1.825v8.822c-1.321.01-2.644-.031-3.961.037-6.843.355-13.461,2.056-20.138,3.405h-4.3a3.625,3.625,0,0,0-.6-.191c-6.262-.893-10.515-4.361-12.938-10.138-.437-1.045-.733-2.15-1.1-3.227Z" transform="translate(-4222 -282.072)" fill="#00529c"/>
  <path id="Path_229" data-name="Path 229" d="M4305.176,187c1.758.71,3.19,1.736,3.675,3.713a4.9,4.9,0,1,1-6.777-3.274c.318-.145.634-.293.951-.439Z" transform="translate(-4282.583 -187)" fill="#00529c"/>
  <path id="Path_230" data-name="Path 230" d="M4290.826,253.732h-23.26c.181-1.313.258-2.586.544-3.81a13.047,13.047,0,0,1,5.227-7.988,10.1,10.1,0,0,1,11.857-.019A13.985,13.985,0,0,1,4290.826,253.732Z" transform="translate(-4257.762 -228.596)" fill="#00529c"/>
</svg>
