<svg xmlns="http://www.w3.org/2000/svg" width="438.902" height="283.765" viewBox="0 0 438.902 283.765">
  <g id="Group_698" data-name="Group 698" transform="translate(8030.367 3235.675)">
    <rect id="Rectangle_789" data-name="Rectangle 789" width="438.902" height="3.207" transform="translate(-8030.367 -2955.117)" fill="#85848b"/>
    <path id="Path_1392" data-name="Path 1392" d="M502.952,536.339a19.092,19.092,0,0,0,8.3-.28c.418-.13.878-.418.836-.836a1.012,1.012,0,0,0-.188-.418,25.828,25.828,0,0,1-2.509-4.78.418.418,0,0,0-.155-.217.392.392,0,0,0-.268,0c-1.225.322-2.283,1.112-3.5,1.451a4.978,4.978,0,0,1-1.907.142c-.552-.063-1.3-.518-1.806-.46C502.044,532.768,502.738,534.474,502.952,536.339Z" transform="translate(-8357.625 -3593.36)" fill="#6c63ff"/>
    <path id="Path_1393" data-name="Path 1393" d="M625.764,521.194c1.827-1.255,3.722-2.572,4.8-4.508a.782.782,0,0,0,.13-.389.8.8,0,0,0-.155-.376,15.54,15.54,0,0,0-3.9-4.211,11.378,11.378,0,0,0-2.174,2.007c-.46.485-1.731,1.255-1.744,1.995,0,.418.485.9.711,1.254.305.452.594.912.87,1.38A16.369,16.369,0,0,1,625.764,521.194Z" transform="translate(-8428.003 -3582.844)" fill="#6c63ff"/>
    <path id="Path_1394" data-name="Path 1394" d="M491.177,546.091a1.861,1.861,0,0,1-.335,1.213,1.643,1.643,0,0,1-.7.418c-3.876,1.388-8.363-.343-12.231,1.025-.795.28-1.547.686-2.346.953a12.764,12.764,0,0,1-2.927.518c-1.367.13-2.743.213-4.115.251a9.894,9.894,0,0,1-3.1-.272,3.726,3.726,0,0,1-2.379-1.886,1.811,1.811,0,0,1-.117-1.342,1.447,1.447,0,0,1,.255-.418,3.668,3.668,0,0,1,.912-.74l1.426-.92a9.574,9.574,0,0,1,2.162-1.146c.565-.184,1.162-.263,1.735-.418,2-.585,3.534-2.174,4.955-3.7l1.94-2.07a1.952,1.952,0,0,1,.673-.539,1.864,1.864,0,0,1,.836-.079,11.181,11.181,0,0,1,5.29,1.773,6.856,6.856,0,0,0,1.3.769,4.658,4.658,0,0,0,3.646-.452c.5-.268.389-.418.6-.895s.719-.782,1.163-.347a1.23,1.23,0,0,1,.276.527,14.834,14.834,0,0,1,.259,4.311,1.9,1.9,0,0,0,.084.669,3.788,3.788,0,0,0,.38.619,1.413,1.413,0,0,1,.079.159,4.253,4.253,0,0,1,.28,2.02Z" transform="translate(-8334.982 -3597.512)" fill="#514e7f"/>
    <path id="Path_1395" data-name="Path 1395" d="M491.177,556.022a1.861,1.861,0,0,1-.335,1.213,1.643,1.643,0,0,1-.7.418c-3.876,1.388-8.363-.343-12.231,1.025-.795.28-1.547.686-2.346.953a12.764,12.764,0,0,1-2.927.518c-1.367.13-2.743.213-4.115.251a9.894,9.894,0,0,1-3.1-.272,3.726,3.726,0,0,1-2.379-1.886,1.811,1.811,0,0,1-.117-1.342,1.447,1.447,0,0,1,.255-.418c.226.473.389,1.1.531,1.326a2.714,2.714,0,0,0,1.815,1.309,4.507,4.507,0,0,0,1.673-.213c3.513-.87,7.247-.882,10.622-2.2a24.562,24.562,0,0,1,3.479-1.338,27.356,27.356,0,0,1,3.764-.305c1.982-.159,3.9-.757,5.854-1.07a4.253,4.253,0,0,1,.263,2.032Z" transform="translate(-8334.982 -3607.444)" fill="#464353"/>
    <path id="Path_1396" data-name="Path 1396" d="M620.679,524.464a7.048,7.048,0,0,1-2.141,3.814,24.936,24.936,0,0,0-3,3.278c-1,1.535-1.455,3.437-2.76,4.734a7.57,7.57,0,0,1-1.673,1.192,11.673,11.673,0,0,1-2.154.991,16.067,16.067,0,0,1-6.084.33,5.473,5.473,0,0,1-1.932-.372,5.82,5.82,0,0,1-.8-.493,3.834,3.834,0,0,1-1.254-1.254,1.255,1.255,0,0,1-.121-.912,2.141,2.141,0,0,1,.581-.887,13.8,13.8,0,0,1,1.472-1.326,8.809,8.809,0,0,0,1.915-1.673,5.4,5.4,0,0,0,.74-1.673,14.844,14.844,0,0,0,.539-3.2,10.137,10.137,0,0,1,.222-2.141c.31-1.1,1.129-2.091,1.037-3.232a.807.807,0,0,1,.042-.489.681.681,0,0,1,.385-.238,6.816,6.816,0,0,1,2-.464,2.33,2.33,0,0,1,1.857.728c.284.343.473.836.891.97a1.412,1.412,0,0,0,.636.025,5.326,5.326,0,0,0,2.927-.9,3.651,3.651,0,0,0,1.213-2.664c0-.38-.172-.778.418-.836.443-.059.795.418,1.02.711a9.908,9.908,0,0,1,1.957,3.563,1.048,1.048,0,0,1,.372-.071,1.618,1.618,0,0,1,1.334.682A2.655,2.655,0,0,1,620.679,524.464Z" transform="translate(-8414.04 -3586.369)" fill="#514e7f"/>
    <path id="Path_1397" data-name="Path 1397" d="M620.9,530.231a7.049,7.049,0,0,1-2.141,3.814,24.936,24.936,0,0,0-3,3.279c-1,1.535-1.455,3.437-2.76,4.734a7.569,7.569,0,0,1-1.673,1.192,11.667,11.667,0,0,1-2.154.991,16.067,16.067,0,0,1-6.084.33,5.473,5.473,0,0,1-1.932-.372,5.822,5.822,0,0,1-.8-.493,3.835,3.835,0,0,1-1.254-1.254,3.057,3.057,0,0,1,1.254-.3c.9.05,1.564.9,2.43,1.167,1.234.372,2.463-.5,3.713-.794.815-.192,1.673-.142,2.48-.418a6.13,6.13,0,0,0,1.836-1.112,9.346,9.346,0,0,0,1.961-1.89,12.15,12.15,0,0,0,1.15-2.3,32.83,32.83,0,0,1,2.325-4.449,3.148,3.148,0,0,1,.473-.619,6.584,6.584,0,0,1,.64-.464,4.86,4.86,0,0,0,1.476-2.693,4.71,4.71,0,0,1,.33-.9,1.618,1.618,0,0,1,1.334.682A2.656,2.656,0,0,1,620.9,530.231Z" transform="translate(-8414.261 -3592.135)" fill="#464353"/>
    <path id="Path_1398" data-name="Path 1398" d="M439.271,207.623a8.87,8.87,0,0,1,2.509,2.927c.585,1.146,3.96,10.036,3.763,11.328,1.1-1.108,5.436-1.288,6.549-2.4.464-.464,2.969-2.781,3.345-3.32s3.17-1.673,3.475-2.241c1.142-2.045-8.1-9.794-6.912-11.813a.527.527,0,0,0,.1-.318.518.518,0,0,0-.155-.247,13.853,13.853,0,0,0-2.672-1.827,4.238,4.238,0,0,1-2.036-2.425,8.782,8.782,0,0,0-2.363,1.6q-2.543,2.179-5,4.445c-.64.594-1.878,1.384-2.174,2.233C437.347,206.477,438.66,207.125,439.271,207.623Z" transform="translate(-8320.317 -3399.905)" fill="#a1616a"/>
    <path id="Path_1399" data-name="Path 1399" d="M461.107,214.13a27.215,27.215,0,0,0-3.956,3.237,7.873,7.873,0,0,0-2.509,4.031c-.117.623-.1,1.255-.2,1.886-.418,2.739-2.785,4.746-3.83,7.31a12.674,12.674,0,0,0-.665,2.446,28.913,28.913,0,0,0-.481,4.8c-.025,1.56,1.505,2.634,2.066,4.09a24.971,24.971,0,0,1,1,4.445,52.671,52.671,0,0,0,2.509,8.238c2.062,5.7,8.744,21.44,10.806,27.139,6.319-1.585,23.137-5.227,28.732-8.568,1.865-1.112-12.942-13.662-10.948-14.527a.744.744,0,0,0,.56-1.05c-1.995-8.723-8.234-15.89-11.065-24.383-.983-2.948-2.747-5.465-4.086-8.267-1.213-2.538-1.861-5.344-3.312-7.757a4.893,4.893,0,0,0-1.058-1.317,6.242,6.242,0,0,0-1.167-.707C462.675,214.774,461.906,214.536,461.107,214.13Z" transform="translate(-8327.201 -3409.703)" fill="#514e7f"/>
    <circle id="Ellipse_325" data-name="Ellipse 325" cx="9.89" cy="9.89" r="9.89" transform="translate(-7890.603 -3213.052)" fill="#a1616a"/>
    <path id="Path_1400" data-name="Path 1400" d="M466.4,205.868a3.316,3.316,0,0,1,3.718-.535,1.8,1.8,0,0,1,1.1,1.786l4.905.075a9.848,9.848,0,0,1,2.325.213,3.379,3.379,0,0,1,1.94,1.217c.059.079.125.176.226.188a.36.36,0,0,0,.226-.075,4.257,4.257,0,0,1,2.442-.418,13.193,13.193,0,0,1,7.18,3.153,2.321,2.321,0,0,1,.836,1.041c.171.556-.033,1.255.418,1.652,0,4.6,1.581,8.9,2.634,13.381a6,6,0,0,0,1.484,2.133,8.6,8.6,0,0,1,1.585,2.367c.895,2.325-.339,5.06.531,7.393a12.668,12.668,0,0,0,1.673,2.655,6.867,6.867,0,0,1,1.43,3.429c.038.56-.033,1.125,0,1.673a10.127,10.127,0,0,0,.418,2.22q.535,2.024,1.121,4.044c.636,2.174,1.464,4.52,3.412,5.679-4.7.8-9.664,1.581-14.147-.054a7.334,7.334,0,0,1-1.765-.882c-1.618-1.154-2.4-3.128-3.1-4.993a23.577,23.577,0,0,1-1.727-6.444,7.4,7.4,0,0,0-.3-2.091,5.953,5.953,0,0,0-2.777-2.618,13.331,13.331,0,0,1-3.345-2.6,5.2,5.2,0,0,1-1.355-3.906c.084-.69.355-1.355.381-2.049a1.605,1.605,0,0,0-.949-1.673c-3.425-1.037-5.06-5.093-5.821-8.589a27.579,27.579,0,0,1-.439-5.478l-.046-3.567a4.709,4.709,0,0,1-1.539-3.383,4.019,4.019,0,0,0-.021-1.121,3.091,3.091,0,0,0-.786-1.192A10.64,10.64,0,0,1,466.4,205.868Z" transform="translate(-8337.052 -3404.384)" fill="#464353"/>
    <path id="Path_1401" data-name="Path 1401" d="M440.252,230.04a27.4,27.4,0,0,1-.109,3.32c-.1.418-.263.836-.385,1.225a7.193,7.193,0,0,0,.456,4.654,25.926,25.926,0,0,0,2.379,4.119,6.688,6.688,0,0,1,.761,1.426,7.382,7.382,0,0,1,.293,1.627,50.525,50.525,0,0,0,1.163,6.574c.468,1.873,5.787,17.889,7.025,19.374a1.576,1.576,0,0,0,.953.648,1.735,1.735,0,0,0,.811-.167l2.509-.962a1.639,1.639,0,0,0,.581-.318,1.5,1.5,0,0,0,.36-.987c.18-2.041-5.152-18.169-5.829-20.1-2.049-5.821-4.775-11.433-6.109-17.459-.372-1.673-.569-4.249-1.794-5.583-.506-.552-.335-.318-.941-.029a6.868,6.868,0,0,0-.887.464,2.9,2.9,0,0,0-1.238,2.17Z" transform="translate(-8321.438 -3417.249)" fill="#464353"/>
    <path id="Path_1402" data-name="Path 1402" d="M556.62,320.79" transform="translate(-8389.544 -3471.761)" fill="#464353"/>
    <path id="Path_1403" data-name="Path 1403" d="M458.595,236.726c.673,3.559,1.367,7.109,2.057,10.667l9.819-2.572a6.9,6.9,0,0,0-.836-2.927c-.895-2.246-.916-4.746-1.639-7.055-.548-1.756-1.5-3.37-2.016-5.139-.3-1.029-.447-2.091-.74-3.132a22.748,22.748,0,0,0-1.154-2.99,18.72,18.72,0,0,0-2.141-3.968,6.243,6.243,0,0,0-3.308,2.145,4.632,4.632,0,0,0-.611,2.091c-.171,2.2.627,4.42.364,6.611a19.445,19.445,0,0,0,.2,6.268Z" transform="translate(-8332.165 -3412.891)" fill="#ca9c38"/>
    <path id="Path_1404" data-name="Path 1404" d="M480.619,344.205c.552,2.091-.247,4.29-.9,6.36a49.3,49.3,0,0,0-2,9.576,8.288,8.288,0,0,1-.493,2.421c-.309.7-.836,1.288-1.2,1.953a9.808,9.808,0,0,0-.749,5.879c.142,1.317.355,2.63.619,3.927a9.932,9.932,0,0,1,.255,4.788c.778-.171,1.3.836,1.254,1.627a4.339,4.339,0,0,0,.075,2.354c.962.351.97,1.673.941,2.7a22.687,22.687,0,0,0,.669,5.269q2.183,10.5,4.633,20.934c3.534,1.1,7.661,2.237,11.031.719a2.212,2.212,0,0,0,1.4-1.405,2.451,2.451,0,0,0-.134-1.079l-1.6-5.813a10.673,10.673,0,0,1-.573-4.3c.155-1.075.623-2.233.1-3.182-.18-.326-.464-.581-.673-.891-.836-1.225-.4-2.864-.33-4.349a3.447,3.447,0,0,0-.067-1,4.969,4.969,0,0,0-.477-1.091,16.694,16.694,0,0,1-1.84-8.3,2.053,2.053,0,0,0-.146-1.083,3.5,3.5,0,0,1-.272-.443,1.213,1.213,0,0,1,.088-.8,7.318,7.318,0,0,1-1.288-1.255,1.8,1.8,0,0,0,.309-2.818.941.941,0,0,0,.447-1.618c-.2-.142-.477-.2-.623-.418-.226-.309-.042-.74.142-1.07l.974-1.76c.728-1.309.891-2.927,1.673-4.182a31.34,31.34,0,0,0,2.576-5.879l2.814-7.765,1.894,1.643a5.989,5.989,0,0,1,1.556,1.773,7.651,7.651,0,0,1,.506,2.124c.694,4.215,3.345,7.87,4.328,12.022a7.917,7.917,0,0,0,.895,2.685,5.851,5.851,0,0,1,.51.769,4.08,4.08,0,0,1,.213,1.275,5.951,5.951,0,0,0,2.509,4.265c.932.64,2.091,1.079,2.6,2.091a3.9,3.9,0,0,0,.418.891c.452.544,1.426.606,1.618,1.288.109.381-.092.836.121,1.171a1.108,1.108,0,0,0,.464.347l2.722,1.359c3.044,1.522,4.6,5.018,6.845,7.565a16.307,16.307,0,0,1,2.049,2.71c.97,1.735,1.418,3.914,3.057,5.018a4.624,4.624,0,0,1,1.188.882c.514.677.326,1.627.372,2.48s.7,1.869,1.51,1.61a5.95,5.95,0,0,0,0,3.157,15.89,15.89,0,0,0,9.643-3.906,3.8,3.8,0,0,0,1.568-2.634.945.945,0,0,0-.117-.523,1.493,1.493,0,0,0-.615-.464c-2.547-1.38-3.312-4.579-4.6-7.176a62.167,62.167,0,0,0-4.182-6.394c-3.028-4.579-5.093-10.12-9.672-13.143-1.008-.665-2.179-1.255-2.685-2.354-.28-.615-.314-1.317-.535-1.953a1.7,1.7,0,0,0-1.43-1.255,8.766,8.766,0,0,0,.326-3.036,3.834,3.834,0,0,0-.151-1.309,6.369,6.369,0,0,0-.673-1.3,12.437,12.437,0,0,1-1.723-6.691,10.97,10.97,0,0,0-.117-3.609c-.184-.581-.506-1.112-.728-1.673a10.453,10.453,0,0,1-.523-3.145l-.251-4.019a19.774,19.774,0,0,0-.518-3.973c-.836-3.12-1.673-16.187-4.537-17.659s-7.786,8.585-11.01,8.782a14.338,14.338,0,0,0-4.182.807,20.372,20.372,0,0,0-5.7,3.764l-5.93,4.98A21.848,21.848,0,0,1,480.619,344.205Z" transform="translate(-8342.15 -3473.034)" fill="#464353"/>
    <path id="Path_1405" data-name="Path 1405" d="M416.65,165.807A7.455,7.455,0,0,1,422.4,163a13.4,13.4,0,0,1,6.36,1.6,7.858,7.858,0,0,0,1.857.761c1.045.213,2.208-.071,3.153.418,1.255.665,1.5,2.358,1.388,3.764s-.372,2.965.376,4.182a9.661,9.661,0,0,1,.723,1.091,3.609,3.609,0,0,1-.059,2.325,15.069,15.069,0,0,1-1.2-1.535,1.414,1.414,0,0,0-1.731-.447c-.539.364-.531,1.025-.56,1.618s-.18,1.3-.74,1.5a1.2,1.2,0,0,1-1.254-.489c-.958-1.171-.573-3.04-1.522-4.219-.539-.669-1.439-1-1.936-1.7-.393-.552-.493-1.255-.836-1.848s-1.142-1.029-1.673-.619a2.262,2.262,0,0,0-.447.6,2.572,2.572,0,0,1-3.053.92,5.106,5.106,0,0,0-1.321-.573,1.635,1.635,0,0,0-1.51.836,3.266,3.266,0,0,0-.418,1.748,4.028,4.028,0,0,1-.326,2.4,2.479,2.479,0,0,1-.669.636,2.083,2.083,0,0,1-2.317.238,1.74,1.74,0,0,1-.519-1.622,13.116,13.116,0,0,1,.493-1.714c.368-1.3-.113-2.756.289-3.977A12.7,12.7,0,0,1,416.65,165.807Z" transform="translate(-8306.643 -3379.951)" fill="#464353"/>
    <path id="Path_1406" data-name="Path 1406" d="M432.776,215.475a1.522,1.522,0,0,0,.092.907,1.443,1.443,0,0,0,.493.473,10.145,10.145,0,0,0,4.658,1.51,1.418,1.418,0,0,1,.644.167,1.132,1.132,0,0,1,.272,1.3,3.375,3.375,0,0,0-.3,1.38c.121.874,1.158,1.255,2.032,1.384a4.727,4.727,0,0,0,3.538-.69,5.466,5.466,0,0,0,1.459-2.187c2.4-5.516,3.241-11.613,5.67-17.111a3.63,3.63,0,0,0,.364-1.146,1.129,1.129,0,0,0-.452-1.054c-.452-.28-1.154-.121-1.459-.56-.151-.222-.134-.523-.268-.757-.28-.5-1.016-.418-1.518-.707-.393-.209-.665-.64-1.1-.723a1.388,1.388,0,0,0-1.142.493,14.7,14.7,0,0,0-2.969,5,58.579,58.579,0,0,1-4.249,7.878,4.594,4.594,0,0,0-1.33-2.605c-.749-.151-1.706,1.163-2.112,1.652a10.521,10.521,0,0,0-2.325,5.4Z" transform="translate(-8317.47 -3400.117)" fill="#ca9c38"/>
    <path id="Path_1407" data-name="Path 1407" d="M462.663,200.32a2,2,0,0,0-1.551.778,4.424,4.424,0,0,0-.648,2.091A18.169,18.169,0,0,1,458,209.8" transform="translate(-8332.164 -3401.667)" opacity="0.1"/>
    <path id="Path_1408" data-name="Path 1408" d="M467.9,204.31a2.388,2.388,0,0,0-2.028,1.217,6.837,6.837,0,0,0-.51,2.066,11.336,11.336,0,0,1-2.028,4.345" transform="translate(-8335.266 -3403.989)" opacity="0.1"/>
    <path id="Path_1409" data-name="Path 1409" d="M386.4,372.528v-5.194a14.418,14.418,0,0,0-14.418-14.414H166.878a14.418,14.418,0,0,0-14.418,14.414v9.576Z" transform="translate(-8154.392 -3490.455)" fill="#33323d"/>
    <path id="Path_1410" data-name="Path 1410" d="M323.371,293.811s-.585,36.322,5.854,48.273,9.2,63.942,9.2,63.942,67.509,6.983,114.553-8.363S600.124,376.04,600.124,376.04l-16.869-113.7S499.918,257,452.51,279.61,323.371,293.811,323.371,293.811Z" transform="translate(-8253.825 -3437.435)" fill="#ebb338"/>
    <path id="Path_1412" data-name="Path 1412" d="M358.542,318.25s-2.112,29.97,3.186,39.546,5.545,52.326,5.545,52.326,60.756,2.818,103.974-11.893,134.036-24.254,134.036-24.254l-10.32-92.98s-75.145-.774-119,19.934S358.542,318.25,358.542,318.25Z" transform="translate(-8274.055 -3448.604)" fill="#ffc951"/>
    <ellipse id="Ellipse_326" data-name="Ellipse 326" cx="15.773" cy="33.83" rx="15.773" ry="33.83" transform="translate(-7822.778 -3132.591) rotate(-7.1)" opacity="0.1"/>
    <path id="Path_1414" data-name="Path 1414" d="M264.29,227.928s10.584,34.75,20.369,44.15,28.369,58.038,28.369,58.038,66.4-14.071,106.466-43.126,133.421-65.736,133.421-65.736L501.977,118.23s-80.958,20.49-119.136,56.557S264.29,227.928,264.29,227.928Z" transform="translate(-8219.458 -3353.905)" fill="#ebb338"/>
    <path id="Path_1416" data-name="Path 1416" d="M308,249.513s7.188,29.176,15.171,36.661S344.5,334.263,344.5,334.263s58.686-15.966,95.3-43.23,120.136-64.176,120.136-64.176L521.588,141.5s-71.754,22.318-107.143,55.487S308,249.513,308,249.513Z" transform="translate(-8244.89 -3367.444)" fill="#ffc951"/>
    <ellipse id="Ellipse_327" data-name="Ellipse 327" cx="15.773" cy="33.83" rx="15.773" ry="33.83" transform="translate(-7849.302 -3148.517) rotate(-24.97)" opacity="0.1"/>
    <path id="Path_1417" data-name="Path 1417" d="M391.959,391.764V536.032a12.474,12.474,0,0,1-12.478,12.474H164.96a12.474,12.474,0,0,1-12.47-12.474V377.22c6.147,2.283,6.147,2.283,12.47,2.091H379.481A12.478,12.478,0,0,1,391.959,391.764Z" transform="translate(-8154.409 -3504.593)" opacity="0.1"/>
    <path id="Path_1418" data-name="Path 1418" d="M391.959,396.148V540.417a12.478,12.478,0,0,1-12.478,12.474H164.96a12.474,12.474,0,0,1-12.47-12.474V381.6c6.147,2.279,6.147,2.279,12.47,2.091H379.481A12.478,12.478,0,0,1,391.959,396.148Z" transform="translate(-8154.409 -3507.142)" fill="#504f60"/>
    <path id="Path_1419" data-name="Path 1419" d="M629.335,543.937v46.137H584.59a23.069,23.069,0,1,1,0-46.139Z" transform="translate(-8392.396 -3601.593)" opacity="0.1"/>
    <path id="Path_1420" data-name="Path 1420" d="M630.795,541v46.145H586.05a23.069,23.069,0,1,1,0-46.139Z" transform="translate(-8393.245 -3599.886)" fill="#33323d"/>
    <circle id="Ellipse_328" data-name="Ellipse 328" cx="8.995" cy="8.995" r="8.995" transform="translate(-7814.044 -3043.581)" opacity="0.1"/>
    <circle id="Ellipse_329" data-name="Ellipse 329" cx="8.995" cy="8.995" r="8.995" transform="translate(-7813.434 -3044.802)" fill="#ffc951"/>
    <path id="Path_1429" data-name="Path 1429" d="M553.08,318.324a19.749,19.749,0,0,0-2.254,2.367,4.738,4.738,0,0,0-1.037,3.04,1.555,1.555,0,0,0,.293.891.753.753,0,0,0,.836.255,1.125,1.125,0,0,0,.418-.368,20.175,20.175,0,0,1,1.405-1.522c.18-.18.418-.368.661-.3a.707.707,0,0,1,.284.188,1.924,1.924,0,0,1,.59.92,2.167,2.167,0,0,1-.648,1.781,4.565,4.565,0,0,0-1.091,1.614.715.715,0,0,0,0,.519.778.778,0,0,0,.326.276,4.667,4.667,0,0,0,3.947.259c.836-.339,1.581-.92,2.442-1.221a5.646,5.646,0,0,0,1.079-.418,2.241,2.241,0,0,0,.958-1.434,5.912,5.912,0,0,0,.063-1.76,20.242,20.242,0,0,0-1.438-6.62.836.836,0,0,0-.243-.351.774.774,0,0,0-.418-.113c-1.07-.113-2.827-.661-3.86-.263a2.726,2.726,0,0,0-.912.811C554.289,317.086,553.08,318.044,553.08,318.324Z" transform="translate(-8385.569 -3468.927)" fill="#a1616a"/>
    <path id="Path_1430" data-name="Path 1430" d="M535.959,265.034c0-1.02-1.255-3.483.74-3.646,0-1.091-1.543-1.769-1.255-2.927.092-.385.418-.7.456-1.091.125-1.117-1.89-1.723-1.556-2.793.125-.418.569-.661.665-1.075.226-.966-1.5-1.4-1.535-2.388,0-.335.188-.648.171-.983,0-.418-.364-.736-.564-1.1-.523-.933-.268-2.375-1.221-2.856.631.054.836-.882.577-1.455s-.79-1.071-.795-1.706a2.577,2.577,0,0,0,0-.694c-.176-.611-1.175-.661-1.342-1.255a5.348,5.348,0,0,1-.021-.686c-.067-.473-.552-.774-1.008-.907a4.11,4.11,0,0,1-1.346-.481c-.293-.222-.631-.59-.945-.418-.117.071-.176.2-.263.305-.376.439-1.1.247-1.568-.075a6.441,6.441,0,0,1-2.388-4.311c-.3-1.66-.289-3.375-.661-5.018a10.729,10.729,0,0,0-.452-1.505,7.921,7.921,0,0,1-.7-1.5c-.075-.962,1.915-.305,2.672-.209a11.9,11.9,0,0,1,2.17.418,23.206,23.206,0,0,1,2.221.974c3.019,1.334,6.666,1.5,9.091,3.738a7.621,7.621,0,0,0,2.509,2.036,11.353,11.353,0,0,1,1.405.364c1.15.539,1.33,2.066,1.957,3.17a6.214,6.214,0,0,1,.514.92,3.543,3.543,0,0,1,.167,1.171l.088,2.9a106.867,106.867,0,0,1-.234,14.548,11.927,11.927,0,0,0,.054,4.763c.125.418.3.811.418,1.234a7.526,7.526,0,0,1,.159,1.505l.067,1.878a.585.585,0,0,1-.092.418.6.6,0,0,1-.506.121c-2.614-.234-5.256-1.706-7.724-.815" transform="translate(-8368.788 -3416.582)" fill="#464353"/>
  </g>
</svg>
