<svg xmlns="http://www.w3.org/2000/svg" width="249.354" height="233.208" viewBox="0 0 249.354 233.208">
  <g id="Group_696" data-name="Group 696" transform="translate(0)">
    <path id="Path_1335" data-name="Path 1335" d="M827.391,604.414s30.848,1.595,23.663,11.306-26.065-5.7-26.065-5.7Z" transform="translate(-628.79 -438.723)" fill="#ffb8b8"/>
    <path id="Path_1336" data-name="Path 1336" d="M632.385,313.448l6.279,1.57s3.663,10.988,6.279,20.93,7.849,39.767,7.849,39.767l40.566,28.43-4.838,10.823-54.042-21.3-12.035-47.257Z" transform="translate(-490.632 -240.253)" fill="#575a89"/>
    <path id="Path_1337" data-name="Path 1337" d="M439.262,291.607l-2.34,49.008,4.883,14.571L427.5,344.695Z" transform="translate(-291.601 -198.908)" opacity="0.2"/>
    <path id="Path_1338" data-name="Path 1338" d="M543.044,633.815s6.8,18.314,7.849,30.872,2.093,22.5,2.093,22.5H521.067l-6.279-9.419v9.418H477.637s-10.465-34.011-6.279-38.2,43.953-21.977,43.953-21.977Z" transform="translate(-386.902 -454.138)" fill="#2f2e41"/>
    <rect id="Rectangle_704" data-name="Rectangle 704" width="184.695" height="0.636" transform="translate(32.266 232.572)" fill="#3f3d56"/>
    <circle id="Ellipse_314" data-name="Ellipse 314" cx="19.884" cy="19.884" r="19.884" transform="translate(96.23 13.544)" fill="#ffb8b8"/>
    <path id="Path_1339" data-name="Path 1339" d="M521.96,214.688l-1.57,23.023L540.274,264.4l9.942-25.116s-8.9-5.756-3.663-17.791Z" transform="translate(-421.021 -172.888)" fill="#ffb8b8"/>
    <path id="Path_1340" data-name="Path 1340" d="M512.675,386.419c0,4.711-13.081,12.035-13.081,12.035v2.616l-5.232,2.616-11.511-23.022-3.138,25.113s-23.025,3.665-30.349,0-10.99-2.092-21.454-5.754,4.187-52.849,4.187-52.849L421.631,271.3l22.863-11.431,1.2-.6,3.144-.579,4.819-.89,16.108,10.888,1.3,6.8.8,4.187,4.183-4.711,3.16-10.392,22.481,12.487-6.278,50.23S512.675,381.711,512.675,386.419Z" transform="translate(-353.656 -202.295)" fill="#575a89"/>
    <path id="Path_1341" data-name="Path 1341" d="M454.844,713.428s24.07,19.36,12.558,23.023-17.791-19.884-17.791-19.884Z" transform="translate(-372.742 -513.083)" fill="#ffb8b8"/>
    <path id="Path_1342" data-name="Path 1342" d="M393.18,301.326l-5.233-1.046s-7.849,4.186-8.372,12.558-7.326,66.976-7.326,66.976l21.977,59.128,17.791-6.8L394.75,376.675l13.081-48.139Z" transform="translate(-319.973 -231.271)" fill="#575a89"/>
    <circle id="Ellipse_315" data-name="Ellipse 315" cx="1.907" cy="1.907" r="1.907" transform="translate(116.507 82.209)" fill="#2f2e41"/>
    <circle id="Ellipse_316" data-name="Ellipse 316" cx="1.907" cy="1.907" r="1.907" transform="translate(116.507 94.607)" fill="#2f2e41"/>
    <circle id="Ellipse_317" data-name="Ellipse 317" cx="1.907" cy="1.907" r="1.907" transform="translate(127.316 176.305)" fill="#2f2e41"/>
    <path id="Path_1343" data-name="Path 1343" d="M509.088,96.255l-3.676-1.471s7.685-8.461,18.378-7.725l-3.007-3.311s7.351-2.943,14.034,4.782c3.513,4.061,7.578,8.835,10.112,14.212h3.936l-1.643,3.617,5.75,3.617-5.9-.65a20.215,20.215,0,0,1,.16,6,7.763,7.763,0,0,1-2.843,5.079h0s-4.558-9.435-4.558-10.907v3.679s-3.676-3.311-3.676-5.518l-2,2.575H520.783l2-3.311-7.685,1.1,3.007-4.047-11.9,16.71S499.4,101.773,509.088,96.255Z" transform="translate(-409.762 -83.197)" fill="#2f2e41"/>
    <circle id="Ellipse_318" data-name="Ellipse 318" cx="31.789" cy="31.789" r="31.789" transform="translate(185.775 90.137)" fill="#3f3d56"/>
    <circle id="Ellipse_319" data-name="Ellipse 319" cx="27.339" cy="27.339" r="27.339" transform="translate(190.226 94.587)" opacity="0.1"/>
    <path id="Path_1344" data-name="Path 1344" d="M876.693,448.087v-3.979a9.24,9.24,0,0,1-5.306-1.734l.832-2.639a8.482,8.482,0,0,0,4.994,1.694,3.825,3.825,0,0,0,4.127-3.861c0-2.167-1.353-3.506-3.919-4.688-3.537-1.576-5.722-3.388-5.722-6.816a6.194,6.194,0,0,1,5.237-6.343v-3.979h2.15v3.822a8.437,8.437,0,0,1,4.508,1.379l-.867,2.6a7.663,7.663,0,0,0-4.37-1.34,3.329,3.329,0,0,0-3.676,3.388c0,2.049,1.283,3.073,4.3,4.491,3.572,1.655,5.375,3.7,5.375,7.21a6.593,6.593,0,0,1-5.479,6.7v4.1Z" transform="translate(-660.439 -310.029)" fill="#c86b72"/>
    <path id="Path_1345" data-name="Path 1345" d="M250.005,501.414l12.714,39.715L252.547,499.8Z" transform="translate(-170.531 -340.92)" opacity="0.2"/>
    <path id="Path_1346" data-name="Path 1346" d="M233.731,313.414h-8.07a1.328,1.328,0,0,1-1.327-1.327v-11.6a1.328,1.328,0,0,1,1.327-1.327h8.07a1.328,1.328,0,0,1,1.327,1.327v11.6A1.328,1.328,0,0,1,233.731,313.414Zm-8.07-13.618a.692.692,0,0,0-.691.691v11.6a.692.692,0,0,0,.691.691h8.07a.692.692,0,0,0,.691-.691v-11.6a.692.692,0,0,0-.691-.691Z" transform="translate(-219.079 -230.507)" fill="#3f3d56"/>
    <path id="Path_1347" data-name="Path 1347" d="M280.94,286.357h-7.288a1.72,1.72,0,0,1-1.718-1.718V261.211a1.72,1.72,0,0,1,1.718-1.718h7.288a1.72,1.72,0,0,1,1.718,1.718v23.428A1.72,1.72,0,0,1,280.94,286.357Zm-7.288-26.228a1.083,1.083,0,0,0-1.082,1.082v23.428a1.083,1.083,0,0,0,1.082,1.082h7.288a1.083,1.083,0,0,0,1.082-1.082V261.211a1.083,1.083,0,0,0-1.082-1.082Z" transform="translate(-251.547 -203.45)" fill="#3f3d56"/>
    <path id="Path_1348" data-name="Path 1348" d="M328.259,261.465h-6.725a2,2,0,0,1-2-2V225a2,2,0,0,1,2-2h6.725a2,2,0,0,1,2,2v34.466a2,2,0,0,1-2,2Zm-6.725-37.829A1.365,1.365,0,0,0,320.171,225v34.466a1.365,1.365,0,0,0,1.363,1.363h6.725a1.365,1.365,0,0,0,1.363-1.363V225a1.365,1.365,0,0,0-1.364-1.363Z" transform="translate(-284.016 -178.558)" fill="#3f3d56"/>
    <rect id="Rectangle_705" data-name="Rectangle 705" width="6.053" height="9.836" transform="translate(7.591 70.862)" fill="#c86b72"/>
    <rect id="Rectangle_706" data-name="Rectangle 706" width="6.053" height="22.319" transform="translate(22.723 58.379)" fill="#c86b72"/>
    <rect id="Rectangle_707" data-name="Rectangle 707" width="6.053" height="33.92" transform="translate(37.854 46.778)" fill="#c86b72"/>
    <path id="Path_1349" data-name="Path 1349" d="M839.4,135.551h-42.28a.318.318,0,0,1-.318-.318V92.318a.318.318,0,0,1,.636,0v42.6H839.4a.318.318,0,1,1,0,.636Z" transform="translate(-609.563 -89.201)" fill="#3f3d56"/>
    <path id="Path_1350" data-name="Path 1350" d="M258.346,249.545H208.119a.318.318,0,0,1-.318-.318V199.318a.318.318,0,0,1,.636,0v49.591h49.909a.318.318,0,1,1,0,.636Z" transform="translate(-207.801 -162.187)" fill="#3f3d56"/>
    <path id="Path_1351" data-name="Path 1351" d="M823.536,185.882h-8.07a1.328,1.328,0,0,1-1.327-1.327v-11.6a1.328,1.328,0,0,1,1.327-1.327h8.07a1.328,1.328,0,0,1,1.327,1.327v11.6a1.328,1.328,0,0,1-1.326,1.327Zm-8.07-13.618a.692.692,0,0,0-.691.691v11.6a.692.692,0,0,0,.691.691h8.07a.692.692,0,0,0,.691-.691v-11.6a.692.692,0,0,0-.691-.691Z" transform="translate(-621.389 -143.516)" fill="#3f3d56"/>
    <path id="Path_1352" data-name="Path 1352" d="M876.215,164.308h-7.428a1.65,1.65,0,0,1-1.648-1.648V141.648A1.65,1.65,0,0,1,868.787,140h7.428a1.65,1.65,0,0,1,1.648,1.648V162.66A1.65,1.65,0,0,1,876.215,164.308Zm-7.428-23.672a1.013,1.013,0,0,0-1.012,1.012V162.66a1.013,1.013,0,0,0,1.012,1.012h7.428a1.013,1.013,0,0,0,1.012-1.012V141.648a1.013,1.013,0,0,0-1.012-1.012Z" transform="translate(-657.541 -121.943)" fill="#3f3d56"/>
    <rect id="Rectangle_708" data-name="Rectangle 708" width="6.053" height="9.836" transform="translate(194.94 30.431)" fill="#c86b72"/>
    <rect id="Rectangle_709" data-name="Rectangle 709" width="6.053" height="19.03" transform="translate(211.934 20.696)" fill="#c86b72"/>
    <circle id="Ellipse_320" data-name="Ellipse 320" cx="2.861" cy="2.861" r="2.861" transform="translate(195.185 19.011)" fill="#c86b72"/>
    <circle id="Ellipse_321" data-name="Ellipse 321" cx="2.861" cy="2.861" r="2.861" transform="translate(212.034 8.203)" fill="#c86b72"/>
  </g>
</svg>
