<svg id="Group_701" data-name="Group 701" xmlns="http://www.w3.org/2000/svg" width="596.623" height="386.861" viewBox="0 0 596.623 386.861">
  <path id="Path_1465" data-name="Path 1465" d="M176.2,570.32c2.957-30.18,20.827-60.306,49.262-70.844a139.717,139.717,0,0,0,2.507,95.892c4.719,11.81,11.2,24.454,7.365,36.58-2.385,7.545-8.548,13.431-15.51,17.193s-14.748,5.671-22.437,7.543l-1.489,1.3C182.9,630.585,173.249,600.5,176.2,570.32Z" transform="translate(-157.296 -273.405)" fill="#f0f0f0"/>
  <path id="Path_1466" data-name="Path 1466" d="M235.83,499.711A119.42,119.42,0,0,0,207.9,567.672a51.426,51.426,0,0,0,1,16.081,29.5,29.5,0,0,0,7.69,13.485c3.4,3.545,7.288,6.778,9.767,11.088a18.06,18.06,0,0,1,1.266,14.716c-1.932,6.043-5.92,11.032-9.99,15.775-4.519,5.266-9.3,10.665-11.1,17.537-.218.833-1.5.446-1.28-.386,3.132-11.957,14.475-19,19.69-29.829,2.433-5.054,3.358-10.872.818-16.075-2.222-4.549-6.228-7.886-9.7-11.446a31.474,31.474,0,0,1-8.01-12.9,47.543,47.543,0,0,1-1.619-15.984,115.859,115.859,0,0,1,7.541-35.417,121.538,121.538,0,0,1,20.934-35.58c.555-.655,1.461.329.91.979Z" transform="translate(-167.36 -273.079)" fill="#fff"/>
  <path id="Path_1467" data-name="Path 1467" d="M202.206,581.253a17.917,17.917,0,0,1-14.123-18.407.669.669,0,0,1,1.336.032,16.591,16.591,0,0,0,13.172,17.1c.842.177.451,1.456-.386,1.28Z" transform="translate(-161.513 -294.755)" fill="#fff"/>
  <path id="Path_1468" data-name="Path 1468" d="M219.317,635.077a34.533,34.533,0,0,0,14.9-20.284c.221-.832,1.5-.445,1.28.386a35.92,35.92,0,0,1-15.545,21.076c-.729.459-1.357-.721-.632-1.178Z" transform="translate(-172.039 -312.488)" fill="#fff"/>
  <path id="Path_1469" data-name="Path 1469" d="M227.407,534.554a10.142,10.142,0,0,0,9.595-.738c.723-.468,1.351.713.632,1.178a11.365,11.365,0,0,1-10.613.84.691.691,0,0,1-.447-.833.672.672,0,0,1,.833-.447Z" transform="translate(-174.61 -285.054)" fill="#fff"/>
  <path id="Path_1470" data-name="Path 1470" d="M324.438,576.078c-.443.3-.887.61-1.33.926a133.556,133.556,0,0,0-16.724,13.773c-.408.383-.815.777-1.211,1.171a140.8,140.8,0,0,0-29.478,42.643,136.733,136.733,0,0,0-6.982,19.568c-2.524,9.239-4.525,19.458-9.8,27.1a23.46,23.46,0,0,1-1.768,2.3l-49.423,1.288c-.114-.053-.228-.1-.342-.149l-1.971.142c.07-.352.151-.715.221-1.066.04-.2.091-.409.131-.613.03-.136.061-.272.08-.4.01-.045.02-.091.03-.125.019-.125.051-.238.07-.352q.665-3.047,1.376-6.1c0-.011,0-.011.01-.023,3.648-15.475,8.619-30.781,15.756-44.846.215-.423.429-.857.666-1.281A130.473,130.473,0,0,1,235,611.968a115.33,115.33,0,0,1,7.45-8.984,95.919,95.919,0,0,1,23.527-18.6c17.482-9.821,37.911-13.942,57-8.719C323.471,575.8,323.949,575.932,324.438,576.078Z" transform="translate(-167.416 -298.556)" fill="#f0f0f0"/>
  <path id="Path_1471" data-name="Path 1471" d="M324.444,577.726a119.42,119.42,0,0,0-63.214,37.449,51.427,51.427,0,0,0-8.88,13.445,29.5,29.5,0,0,0-1.979,15.4c.58,4.878,1.738,9.8,1.123,14.734a18.06,18.06,0,0,1-7.849,12.512c-5.181,3.662-11.369,5.244-17.474,6.581-6.778,1.484-13.842,2.919-19.417,7.322-.675.534-1.464-.546-.789-1.078,9.7-7.661,23-6.453,33.681-11.962,4.986-2.57,9.228-6.659,10.331-12.342.965-4.97-.225-10.047-.855-14.98a31.474,31.474,0,0,1,1.374-15.127,47.543,47.543,0,0,1,8.331-13.737A115.857,115.857,0,0,1,286.171,592.2,121.537,121.537,0,0,1,324.307,576.4c.837-.189.969,1.142.137,1.33Z" transform="translate(-167.518 -299.574)" fill="#fff"/>
  <path id="Path_1472" data-name="Path 1472" d="M295.187,613.435a17.917,17.917,0,0,1-.194-23.2c.553-.658,1.6.171,1.048.83a16.591,16.591,0,0,0,.225,21.58c.565.648-.516,1.434-1.078.789Z" transform="translate(-196.483 -304.207)" fill="#fff"/>
  <path id="Path_1473" data-name="Path 1473" d="M272.08,671.414a34.533,34.533,0,0,0,24.107-7.226c.677-.531,1.466.548.789,1.078a35.92,35.92,0,0,1-25.1,7.468c-.859-.073-.65-1.393.2-1.321Z" transform="translate(-189.847 -329.405)" fill="#fff"/>
  <path id="Path_1474" data-name="Path 1474" d="M345.233,591.653a10.142,10.142,0,0,0,8.106,5.187c.859.062.649,1.382-.2,1.321a11.365,11.365,0,0,1-8.98-5.719.691.691,0,0,1,.145-.934A.672.672,0,0,1,345.233,591.653Z" transform="translate(-214.588 -304.679)" fill="#fff"/>
  <path id="Path_1475" data-name="Path 1475" d="M822.349,183.52c-.738-2.179-9.992-9.586-4.321-10.83l4.65,6.2,21.379-21.379,2.15,2.15Z" transform="translate(-375.258 -157.04)" fill="#ee6973"/>
  <path id="Path_1476" data-name="Path 1476" d="M822.349,293.714c-.738-2.179-9.992-9.586-4.321-10.83l4.65,6.2L844.057,267.7l2.15,2.15Z" transform="translate(-375.258 -194.537)" fill="#ee6973"/>
  <path id="Path_1477" data-name="Path 1477" d="M822.349,405.482c-.738-2.179-9.992-9.586-4.321-10.83l4.65,6.2,21.379-21.379,2.15,2.15Z" transform="translate(-375.258 -232.57)" fill="#ee6973"/>
  <circle id="Ellipse_335" data-name="Ellipse 335" cx="6.597" cy="6.597" r="6.597" transform="translate(420.808 100.104)" fill="#3f3d56"/>
  <circle id="Ellipse_336" data-name="Ellipse 336" cx="6.597" cy="6.597" r="6.597" transform="translate(420.808 28.195)" fill="#3f3d56"/>
  <rect id="Rectangle_810" data-name="Rectangle 810" width="106.214" height="1.319" transform="translate(490.408 19.619)" fill="#3f3d56"/>
  <circle id="Ellipse_337" data-name="Ellipse 337" cx="6.597" cy="6.597" r="6.597" transform="translate(424.107 176.759)" fill="#3f3d56"/>
  <rect id="Rectangle_811" data-name="Rectangle 811" width="106.214" height="1.319" transform="translate(490.408 92.315)" fill="#3f3d56"/>
  <rect id="Rectangle_812" data-name="Rectangle 812" width="106.214" height="1.319" transform="translate(490.408 166.051)" fill="#3f3d56"/>
  <path id="Path_1478" data-name="Path 1478" d="M685.946,259.646H652.96V226h22.43v1.319H654.279v31.007h30.347V243.153h1.319Z" transform="translate(-222.192 -76.904)" fill="#3f3d56"/>
  <path id="Path_1479" data-name="Path 1479" d="M685.946,147.646H652.96V114h22.43v1.319H654.279v31.007h30.347V131.153h1.319Z" transform="translate(-222.192 -38.792)" fill="#3f3d56"/>
  <path id="Path_1480" data-name="Path 1480" d="M685.946,33.646H652.96V0h22.43V1.319H654.279V32.326h30.347V17.153h1.319Z" transform="translate(-222.192)" fill="#3f3d56"/>
  <path id="Path_1481" data-name="Path 1481" d="M522.572,330.485s-8.816,37.222,1.959,37.222,36.242-42.12,36.242-42.12l-8.816-10.774-15.823,21.969-.829-11.194Z" transform="translate(-274.186 -210.567)" fill="#a0616a"/>
  <circle id="Ellipse_338" data-name="Ellipse 338" cx="8.576" cy="8.576" r="8.576" transform="translate(275.662 99.486)" fill="#a0616a"/>
  <path id="Path_1482" data-name="Path 1482" d="M365.174,543.335h11.415L382.02,499.3H365.171Z" transform="translate(-124.262 -169.904)" fill="#a0616a"/>
  <path id="Path_1483" data-name="Path 1483" d="M512.384,731.11h35.105v-.444A13.664,13.664,0,0,0,533.826,717h0l-6.412-4.865L515.448,717h-3.065Z" transform="translate(-271.875 -345.77)" fill="#2f2e41"/>
  <path id="Path_1484" data-name="Path 1484" d="M179.038,524.136l10.214,5.1,24.523-36.974L198.7,484.736Z" transform="translate(-60.924 -164.948)" fill="#a0616a"/>
  <path id="Path_1485" data-name="Path 1485" d="M318.25,710.625,349.661,726.3l.2-.4a13.665,13.665,0,0,0-6.124-18.328h0l-3.565-7.216-12.878-.989L324.55,698Z" transform="translate(-205.814 -340.96)" fill="#2f2e41"/>
  <rect id="Rectangle_813" data-name="Rectangle 813" width="375.939" height="1.478" transform="translate(0 385.383)" fill="#ccc"/>
  <path id="Path_1486" data-name="Path 1486" d="M378.166,437.894s-4.562,54.854-5.542,66.609a83.594,83.594,0,0,1-4.9,21.55,20.263,20.263,0,0,0-1.959,7.836l-22.2,40.351s-6.785,4.987-5.805,8.905-4.091,6.268-4.091,6.268l23.381,4.506A3.034,3.034,0,0,1,359.009,590c2.939-.979,5.278-9.475,5.278-9.475l32.825-53.494,23.509-48.977s13.713,44.079,16.652,48.976c0,0,10.775,54.853,12.734,59.751s2.939,4.9,1.959,6.857-.98,3.918,0,4.9,19.591,0,19.591,0l-4.9-69.547-8.816-83.259-45.058-13.713Z" transform="translate(-211.061 -250.45)" fill="#2f2e41"/>
  <circle id="Ellipse_339" data-name="Ellipse 339" cx="20.57" cy="20.57" r="20.57" transform="translate(190.649 15.353)" fill="#a0616a"/>
  <path id="Path_1487" data-name="Path 1487" d="M482.238,274.82l-24.487-14.836s-.679-9.213-7.656-9.646c-3.5-.218-8.759-.55-16.648-1.059-1.667-.108-2.792,9.013-4.7,8.889L402.9,265.025l3.918,66.608s-5.877,26.447-3.918,31.345-4.9,6.857-2.939,7.836,0,7.836,0,7.836,38.2,19.591,80.321,4.9l-3.918-12.734a10.279,10.279,0,0,0-1.959-9.8s3.918-5.877-.979-10.775c0,0,1.959-8.816-2.939-12.734L469.5,323.8l2.939-6.857Z" transform="translate(-233.497 -188.267)" fill="#e6e6e6"/>
  <path id="Path_1488" data-name="Path 1488" d="M438.795,209.612l-.575-1.336c-.074-.173-7.349-17.37-.9-27.977,2.985-4.911,8.412-7.683,16.131-8.24,12.077-.873,20.344,1.992,24.575,8.509a7.307,7.307,0,0,1-6.158,11.255H471.7l-2.219-2.881-.129.28a4.585,4.585,0,0,1-4.81,2.481c-.368-.026-.693.291-.955.97a1.725,1.725,0,0,1-1.291,1.2c-1.6.311-3.873-1.7-4.892-2.7a1.635,1.635,0,0,1-.762,1.122c-1.074.619-2.745-.19-3.224-.447-3.821.812-6.294.595-7.354-.645-.718,5.082-2.26,14.23-4.109,14.737a.924.924,0,0,1-1.009-.441c-.445-.578-.843-.866-1.091-.785-.6.191-.956,2.172-1.007,3.45Z" transform="translate(-245.425 -161.939)" fill="#2f2e41"/>
  <path id="Path_1489" data-name="Path 1489" d="M503.982,288.661l9.771-1.588a47.707,47.707,0,0,1,13.737,25.1c2.939,15.672,3.918,18.611,3.918,18.611L507.9,336.658,495.166,312.17Z" transform="translate(-266.016 -201.128)" fill="#e6e6e6"/>
  <rect id="Rectangle_814" data-name="Rectangle 814" width="76.788" height="154.579" transform="translate(188.569 184.469) rotate(-85.49)" fill="#fff"/>
  <path id="Path_1490" data-name="Path 1490" d="M462.4,327.9c-3.771-2.693-8.559-2.888-10.388-2.849.558,1.742,2.292,6.209,6.063,8.9s8.562,2.889,10.389,2.851C467.91,335.062,466.175,330.593,462.4,327.9Z" transform="translate(-251.332 -214.049)" fill="#f1606b"/>
  <path id="Path_1491" data-name="Path 1491" d="M474.443,402.188,449.7,400.236a5.585,5.585,0,1,0-.878,11.135h0l24.744,1.952a5.585,5.585,0,0,0,.878-11.135Z" transform="translate(-248.494 -239.63)" fill="#f1606b"/>
  <path id="Path_1492" data-name="Path 1492" d="M586.016,321.862,447.284,310.917a12.325,12.325,0,0,0-13.255,11.32l-5.335,67.589a12.332,12.332,0,0,0,11.322,13.261l138.732,10.945A12.325,12.325,0,0,0,592,402.712l5.07-64.24.1-1.312.161-2.042a12.325,12.325,0,0,0-11.32-13.255Zm-4.1,58.806L581.04,391.8a7.465,7.465,0,0,1-8.01,6.835l-18.56-1.462a7.465,7.465,0,0,1-6.835-8.01l.879-11.135a7.468,7.468,0,0,1,8.01-6.835l18.554,1.464a7.474,7.474,0,0,1,6.841,8.008Zm-144.566-5.806a6.826,6.826,0,0,1,7.332-6.261l24.743,1.953a6.823,6.823,0,1,1-1.061,13.6l-.013,0-24.743-1.953a6.817,6.817,0,0,1-6.258-7.347Zm5.3-55.074-.169-.692.712-.065c.278-.03,6.86-.621,11.984,3.039s6.695,10.081,6.763,10.35l.163.694-.71.072a18.754,18.754,0,0,1-3.027-.02,17.9,17.9,0,0,1-8.958-3.025c-5.124-3.66-6.695-10.081-6.757-10.351Z" transform="translate(-243.383 -209.229)" fill="#ee6973"/>
  <path id="Path_1493" data-name="Path 1493" d="M624.066,427.528l-8.042-.634a2.172,2.172,0,1,0-.342,4.33l8.042.634a2.172,2.172,0,0,0,.342-4.33Z" transform="translate(-306.344 -248.704)" fill="#f1606b"/>
  <path id="Path_1494" data-name="Path 1494" d="M646.571,429.3l-8.042-.634a2.172,2.172,0,0,0-.342,4.33l8.042.634a2.172,2.172,0,0,0,.342-4.33Z" transform="translate(-314.003 -249.308)" fill="#f1606b"/>
  <path id="Path_1495" data-name="Path 1495" d="M624.732,419.089l-8.042-.634a2.172,2.172,0,1,0-.342,4.33l8.042.634a2.172,2.172,0,0,0,.342-4.33Z" transform="translate(-306.571 -245.833)" fill="#f1606b"/>
  <path id="Path_1496" data-name="Path 1496" d="M647.236,420.864l-8.042-.634a2.172,2.172,0,0,0-.342,4.33l8.042.634a2.172,2.172,0,1,0,.342-4.33Z" transform="translate(-314.229 -246.437)" fill="#f1606b"/>
  <path id="Path_1497" data-name="Path 1497" d="M625.4,410.65l-8.042-.634a2.172,2.172,0,0,0-.342,4.33l8.042.634a2.172,2.172,0,1,0,.342-4.33Z" transform="translate(-306.798 -242.961)" fill="#f1606b"/>
  <path id="Path_1498" data-name="Path 1498" d="M647.9,412.425l-8.042-.634a2.172,2.172,0,1,0-.342,4.33l8.042.634a2.172,2.172,0,0,0,.342-4.33Z" transform="translate(-314.455 -243.565)" fill="#f1606b"/>
  <rect id="Rectangle_815" data-name="Rectangle 815" width="1.32" height="163.354" transform="translate(188.48 135.65) rotate(-85.509)" fill="#fff"/>
  <path id="Path_1499" data-name="Path 1499" d="M502.155,191.24l-.1,1.313-5.668-.445L436,187.365l.109-1.314,60.379,4.745Z" transform="translate(-148.363 -63.31)" fill="#3f3d56"/>
  <path id="Path_1500" data-name="Path 1500" d="M380.572,321.485s-8.816,37.222,1.959,37.222,36.242-42.12,36.242-42.12l-8.816-10.775-15.823,21.969-.829-11.194Z" transform="translate(-225.866 -207.505)" fill="#a0616a"/>
  <circle id="Ellipse_340" data-name="Ellipse 340" cx="8.576" cy="8.576" r="8.576" transform="translate(181.983 93.548)" fill="#a0616a"/>
  <path id="Path_1501" data-name="Path 1501" d="M402.781,279.025l-5.877-5.877S385.149,280,384.17,286.861s-5.877,28.406-5.877,28.406l18.121,1.469,5.877-8.816Z" transform="translate(-226.246 -196.389)" fill="#e6e6e6"/>
</svg>
