<svg xmlns="http://www.w3.org/2000/svg" width="43.156" height="49.135" viewBox="0 0 43.156 49.135">
  <g id="Group_681" data-name="Group 681" transform="translate(0)">
    <g id="Group_230" data-name="Group 230">
      <path id="Path_253" data-name="Path 253" d="M5242.1,180.953c0-2.271-.3-2.575-2.54-2.579q-9.527-.017-19.051,0c-6.414,0-12.826.027-19.243-.015-1.64-.012-2.3.643-2.29,2.287.046,7.695-.085,15.4.064,23.089a24.865,24.865,0,0,0,19.086,23.439,8.737,8.737,0,0,0,3.575.216A24.814,24.814,0,0,0,5242.1,202.7C5242.155,195.45,5242.113,188.2,5242.1,180.953Zm-3.118,22.488a21.734,21.734,0,0,1-17.487,20.868,4.961,4.961,0,0,1-1.875.008,21.728,21.728,0,0,1-17.507-20.848c-.127-7.241-.023-14.485-.023-21.942h36.8a7.213,7.213,0,0,1,.123.939C5239.022,189.456,5239.115,196.45,5238.987,203.441Zm-30.71-15.7c0,5.512-.315,10.913.077,16.256.5,6.817,4.319,11.491,10.735,13.885a4.612,4.612,0,0,0,2.934,0c5.724-2.1,9.754-6.105,10.394-12.191.616-5.878.135-11.871.135-17.946Z" transform="translate(-5198.971 -178.354)" fill="#cacbcc"/>
      <path id="Path_254" data-name="Path 254" d="M5242.1,180.953c0-2.271-.3-2.575-2.54-2.579q-9.527-.017-19.051,0c-6.414,0-12.826.027-19.243-.015-1.64-.012-2.3.643-2.29,2.287.046,7.695-.085,15.4.064,23.089a24.865,24.865,0,0,0,19.086,23.439,8.737,8.737,0,0,0,3.575.216A24.814,24.814,0,0,0,5242.1,202.7C5242.155,195.45,5242.113,188.2,5242.1,180.953Zm-3.118,22.488a21.734,21.734,0,0,1-17.487,20.868,4.961,4.961,0,0,1-1.875.008,21.728,21.728,0,0,1-17.507-20.848c-.127-7.241-.023-14.485-.023-21.942h36.8a7.213,7.213,0,0,1,.123.939C5239.022,189.456,5239.115,196.45,5238.987,203.441Z" transform="translate(-5198.971 -178.354)" fill="#00529c"/>
      <path id="Path_255" data-name="Path 255" d="M5249.545,193.29a7.383,7.383,0,0,0-.123-.939h-36.8c0,7.456-.1,14.7.022,21.942a21.728,21.728,0,0,0,17.508,20.848,4.959,4.959,0,0,0,1.875-.008,21.736,21.736,0,0,0,17.487-20.868C5249.637,207.275,5249.545,200.281,5249.545,193.29Zm-17,35.415a4.608,4.608,0,0,1-2.933,0c-6.417-2.394-10.235-7.068-10.736-13.885-.393-5.343-.077-10.744-.077-16.256h24.274c0,6.074.481,12.068-.135,17.946C5242.3,222.6,5238.27,226.6,5232.545,228.7Z" transform="translate(-5209.494 -189.179)" fill="#dce7f1"/>
      <path id="Path_256" data-name="Path 256" d="M5263.9,219.784h-24.274c0,5.512-.315,10.913.077,16.256.5,6.817,4.319,11.491,10.736,13.885a4.609,4.609,0,0,0,2.933,0c5.725-2.1,9.755-6.105,10.394-12.191C5264.38,231.852,5263.9,225.859,5263.9,219.784Z" transform="translate(-5230.319 -210.395)" fill="#00529c"/>
    </g>
    <g id="Group_231" data-name="Group 231" transform="translate(15.809 15.737)">
      <path id="Path_257" data-name="Path 257" d="M5274.814,253.425a3.189,3.189,0,0,1-2.632,1.824c-.733.059-1.475.029-2.212.019a1.089,1.089,0,0,0-1.135.6,1.156,1.156,0,0,0,.336,1.361q1.274,1.293,2.552,2.582,1.786,1.812,3.571,3.627a1.007,1.007,0,0,0,1.109.344.966.966,0,0,0,.3-1.678q-2.2-2.244-4.411-4.478c-.108-.111-.211-.228-.34-.367a1.071,1.071,0,0,1,.163-.05,5.127,5.127,0,0,0,4.662-3.5.374.374,0,0,1,.417-.288c.693.011,1.387.014,2.08,0a.961.961,0,1,0,.02-1.921c-.191-.009-.384,0-.575,0h-1.62v-1.762c.737,0,1.444.013,2.151,0a.97.97,0,1,0-.062-1.931q-3.542,0-7.082,0c-.782,0-1.563,0-2.346,0a.932.932,0,0,0-.934.614.973.973,0,0,0,1.016,1.319c1.594.012,3.188,0,4.78,0h.476V251.5h-.508c-1.563,0-3.128.005-4.691,0a1.038,1.038,0,0,0-1.036.535.957.957,0,0,0,.932,1.391c1.49.015,2.98,0,4.471.005Z" transform="translate(-5268.732 -247.797)" fill="#fff"/>
      <path id="Path_258" data-name="Path 258" d="M5274.814,253.425h-.553c-1.49,0-2.98.01-4.471-.005a.957.957,0,0,1-.932-1.391,1.038,1.038,0,0,1,1.036-.535c1.563.008,3.128,0,4.691,0h.508v-1.761h-.476c-1.593,0-3.187.008-4.78,0a.973.973,0,0,1-1.016-1.319.932.932,0,0,1,.934-.614c.782,0,1.563,0,2.346,0q3.542,0,7.082,0a.97.97,0,1,1,.063,1.931c-.707.017-1.414,0-2.151,0V251.5h1.62c.191,0,.384-.006.575,0a.961.961,0,1,1-.02,1.921c-.693.015-1.387.012-2.08,0a.374.374,0,0,0-.417.288,5.127,5.127,0,0,1-4.662,3.5,1.071,1.071,0,0,0-.163.05c.129.139.231.256.34.367q2.206,2.239,4.411,4.478a.966.966,0,0,1-.3,1.678,1.007,1.007,0,0,1-1.109-.344q-1.783-1.817-3.571-3.627-1.274-1.292-2.552-2.582a1.156,1.156,0,0,1-.336-1.361,1.089,1.089,0,0,1,1.135-.6c.737.01,1.479.039,2.212-.019A3.189,3.189,0,0,0,5274.814,253.425Z" transform="translate(-5268.732 -247.797)" fill="#dce7f1"/>
    </g>
  </g>
</svg>
