<svg xmlns="http://www.w3.org/2000/svg" width="417.048" height="226.7" viewBox="0 0 417.048 226.7">
  <g id="Group_699" data-name="Group 699" transform="translate(0 0)">
    <path id="Path_1431" data-name="Path 1431" d="M689.04,355.529l-9.942-1.761-10.154,27.4L651.606,407a6.142,6.142,0,1,0,6.309,5.817l21.176-24.414Z" transform="translate(-411.671 -294.067)" fill="#ffb7b7"/>
    <path id="Path_1432" data-name="Path 1432" d="M752.223,274c0,9.853-9.11,8.362-20.349,8.362s-20.349,1.49-20.349-8.362,4.45-27.317,20.349-27.317C748.321,246.68,752.223,264.145,752.223,274Z" transform="translate(-440.827 -246.68)" fill="#2f2e41"/>
    <path id="Path_1433" data-name="Path 1433" d="M822.775,402.7,804.817,371.8l-8.362-28-10.035,1.115,7.8,33.45,19.991,26.3a6.13,6.13,0,1,0,8.56-1.971Z" transform="translate(-473.968 -289.656)" fill="#ffb7b7"/>
    <path id="Path_1434" data-name="Path 1434" d="M593.709,289.4,614.336,345.7h8.485l-14.556-58.326Z" transform="translate(-262.719 -127.166)" fill="#ffb7b7"/>
    <path id="Path_1435" data-name="Path 1435" d="M489.6,294.9,468.974,351.2h-8.486l14.556-58.326Z" transform="translate(-203.768 -129.6)" fill="#ffb7b7"/>
    <path id="Path_1436" data-name="Path 1436" d="M743.483,322.914s8.362-2.787,10.592,1.115,7.8,16.167,7.8,16.167l-11.15,1.672,10.035,25.087s13.937,10.592,17.282,34.565,6.69,43.485,6.69,43.485-57.98,9.477-80.279,5.575c0,0,1.672-11.707,6.132-12.265-3.345-3.345,1.062-6.132,1.062-6.132l10.088-36.237,2.23-17.84s-3.884-18.243-8.92-21.742-3.345-13.38-3.345-13.38l-10.035.557s1.115-17.84,6.132-17.84h6.132Z" transform="translate(-436.466 -279.987)" fill="#2f2e41"/>
    <path id="Path_1437" data-name="Path 1437" d="M856.274,644.74H834.236v-.279a8.578,8.578,0,0,1,8.577-8.578h13.461Z" transform="translate(-495.127 -418.904)" fill="#2f2e41"/>
    <path id="Path_1438" data-name="Path 1438" d="M688.274,644.74H666.236v-.279a8.578,8.578,0,0,1,8.577-8.578h13.461Z" transform="translate(-420.786 -418.904)" fill="#2f2e41"/>
    <circle id="Ellipse_330" data-name="Ellipse 330" cx="13.693" cy="13.693" r="13.693" transform="translate(278.25 7.281)" fill="#ffb7b7"/>
    <path id="Path_1439" data-name="Path 1439" d="M719.526,272.175h5.416l2.389-6.69.478,6.69H730.4l1.394-3.9.279,3.9H751.3a14.5,14.5,0,0,0-14.495-14.495h-2.788a14.5,14.5,0,0,0-14.495,14.495Z" transform="translate(-444.367 -251.548)" fill="#2f2e41"/>
    <path id="Path_1440" data-name="Path 1440" d="M804,652.435H591.594a.557.557,0,0,1,0-1.115H804a.557.557,0,0,1,0,1.115Z" transform="translate(-387.51 -425.735)" fill="#cbcbcb"/>
    <rect id="Rectangle_75" data-name="Rectangle 75" width="239.863" height="100.723" transform="translate(0 19.006)" fill="#cbcbcb"/>
    <path id="Path_1441" data-name="Path 1441" d="M234.963,380.46H464.792V289.771H234.963Z" transform="translate(-229.945 -265.748)" fill="#fff"/>
    <path id="Path_1442" data-name="Path 1442" d="M547.6,346.772v38.672a1.927,1.927,0,0,1-1.922,1.922H504.07a1.927,1.927,0,0,1-1.922-1.922V346.772a1.924,1.924,0,0,1,1.922-1.922h41.612A1.924,1.924,0,0,1,547.6,346.772Z" transform="translate(-348.176 -290.121)" fill="#ff735d"/>
    <path id="Path_1443" data-name="Path 1443" d="M542,386.649h-5.88a1.9,1.9,0,0,1-1.922-1.873V344.66a1.9,1.9,0,0,1,1.922-1.873H542a1.9,1.9,0,0,1,1.922,1.873v40.116A1.9,1.9,0,0,1,542,386.649Z" transform="translate(-362.356 -289.208)" fill="#3f3d56"/>
    <path id="Path_1444" data-name="Path 1444" d="M533.585,322.014c3.022,2.616,2.068,8.669,2.068,8.669s-5.854,1.812-8.876-.8-2.068-8.669-2.068-8.669S530.563,319.4,533.585,322.014Z" transform="translate(-358.096 -279.39)" fill="#3f3d56"/>
    <path id="Path_1445" data-name="Path 1445" d="M551.377,329.192c-2.606,3.03-8.663,2.095-8.663,2.095s-1.831-5.848.776-8.878,8.663-2.095,8.663-2.095S553.984,326.162,551.377,329.192Z" transform="translate(-365.85 -279.203)" fill="#3f3d56"/>
    <path id="Path_1446" data-name="Path 1446" d="M547.6,346.772v6.511l-45.457-.192v-6.319a1.924,1.924,0,0,1,1.922-1.922h41.612a1.924,1.924,0,0,1,1.922,1.922Z" transform="translate(-348.176 -290.121)" opacity="0.2"/>
    <path id="Path_1447" data-name="Path 1447" d="M549.517,348.291a1.92,1.92,0,0,1-1.536.757l-50.658-.212a1.922,1.922,0,0,1-1.914-1.93h0l.024-5.654a1.922,1.922,0,0,1,1.93-1.914h0l50.658.212a1.922,1.922,0,0,1,1.914,1.93h0l-.024,5.654a1.912,1.912,0,0,1-.394,1.157Z" transform="translate(-345.194 -287.682)" fill="#ff735d"/>
    <rect id="Rectangle_790" data-name="Rectangle 790" width="10.177" height="9.725" transform="translate(171.919 61.466) rotate(-89.77)" fill="#3f3d56"/>
    <rect id="Rectangle_81" data-name="Rectangle 81" width="56.233" height="4.49" transform="translate(35.396 54.169)" fill="#e5e5e5"/>
    <rect id="Rectangle_82" data-name="Rectangle 82" width="86.836" height="4.49" transform="translate(35.396 70.545)" fill="#ff735d"/>
    <rect id="Rectangle_83" data-name="Rectangle 83" width="70.77" height="4.49" transform="translate(35.396 85.972)" fill="#e5e5e5"/>
    <path id="Path_438" data-name="Path 438" d="M351.065,566.97a13.5,13.5,0,0,0,13.036-2.3c4.566-3.832,6-10.144,7.162-15.99l3.445-17.292-7.213,4.966c-5.187,3.572-10.491,7.258-14.082,12.431s-5.158,12.235-2.273,17.833" transform="translate(-280.691 -372.667)" fill="#e6e6e6"/>
    <path id="Path_439" data-name="Path 439" d="M353.071,600.815c-.908-6.614-1.842-13.313-1.2-20a31.456,31.456,0,0,1,6.065-16.49,27.433,27.433,0,0,1,7.038-6.378c.7-.444,1.351.671.651,1.113A26.079,26.079,0,0,0,355.3,571.508c-2.246,5.712-2.607,11.939-2.22,18.007.234,3.669.731,7.315,1.23,10.956a.668.668,0,0,1-.45.793.649.649,0,0,1-.793-.45Z" transform="translate(-281.583 -384.372)" fill="#f2f2f2"/>
    <path id="Path_442" data-name="Path 442" d="M365.914,607.345a9.937,9.937,0,0,0,8.659,4.47c4.384-.208,8.038-3.267,11.327-6.172l9.729-8.59-6.439-.308c-4.631-.222-9.381-.43-13.791,1s-8.478,4.865-9.285,9.43" transform="translate(-287.892 -401.516)" fill="#e6e6e6"/>
    <path id="Path_443" data-name="Path 443" d="M349.523,625.9c4.371-7.733,9.44-16.328,18.5-19.075a20.642,20.642,0,0,1,7.78-.8c.826.071.62,1.345-.2,1.274a19.176,19.176,0,0,0-12.416,3.285,32.271,32.271,0,0,0-8.534,9.209c-1.413,2.152-2.679,4.4-3.945,6.636C350.3,627.14,349.113,626.624,349.523,625.9Z" transform="translate(-280.601 -405.655)" fill="#f2f2f2"/>
    <path id="Path_1448" data-name="Path 1448" d="M374.414,643.435H298.594a.557.557,0,0,1,0-1.115h75.819a.557.557,0,0,1,0,1.115Z" transform="translate(-257.856 -421.753)" fill="#cbcbcb"/>
  </g>
</svg>
