<svg xmlns="http://www.w3.org/2000/svg" width="341.715" height="193.243" viewBox="0 0 341.715 193.243">
  <g id="Group_694" data-name="Group 694" transform="translate(0)">
    <path id="Path_1291" data-name="Path 1291" d="M146.8,426.244h-5.073l-.758-19.568H146.8Z" transform="translate(-82.636 -238.395)" fill="#ffb8b8"/>
    <path id="Path_1292" data-name="Path 1292" d="M322.112,673.036H305.755v-.207a6.367,6.367,0,0,1,6.367-6.367h9.991Z" transform="translate(-256.655 -480.269)" fill="#2f2e41"/>
    <path id="Path_1293" data-name="Path 1293" d="M224.112,426.244h5.073l.758-19.568h-5.832Z" transform="translate(-131.375 -238.395)" fill="#ffb8b8"/>
    <path id="Path_1294" data-name="Path 1294" d="M408.085,666.461h9.991a6.367,6.367,0,0,1,6.367,6.367v.207H408.085Z" transform="translate(-316.642 -480.269)" fill="#2f2e41"/>
    <path id="Path_1295" data-name="Path 1295" d="M360.058,562.619a1.87,1.87,0,0,1-1.818-1.458l-12.574-54.844a.6.6,0,0,0-.606-.486h0a.6.6,0,0,0-.6.492L332.906,560.8a1.871,1.871,0,0,1-1.822,1.476h-5.5a1.862,1.862,0,0,1-1.859-1.972l4.1-69.044,1.649-.488h.031l32.383.283,6.9,68.968a1.861,1.861,0,0,1-1.7,2.037l-6.871.555Q360.132,562.619,360.058,562.619Z" transform="translate(-267.188 -377.277)" fill="#2f2e41"/>
    <circle id="Ellipse_289" data-name="Ellipse 289" cx="10.163" cy="10.163" r="10.163" transform="translate(69.334 29.966)" fill="#a0616a"/>
    <path id="Path_1296" data-name="Path 1296" d="M346.419,413.791a17.544,17.544,0,0,1-5.267-.741,11.627,11.627,0,0,1-7.05-5.948,1.864,1.864,0,0,1-.139-1.388c1.121-3.826,6.537-23.711,3.081-39.519a16.753,16.753,0,0,1,2.381-12.875,16.542,16.542,0,0,1,10.729-7.216h0c.573-.112,1.15-.2,1.713-.273a16.484,16.484,0,0,1,13.348,4.392,16.891,16.891,0,0,1,5.3,13.391l-2.656,42.623a1.846,1.846,0,0,1-.992,1.532C363.812,409.37,354.623,413.791,346.419,413.791Z" transform="translate(-273.148 -292.241)" fill="#ccc"/>
    <path id="Path_1297" data-name="Path 1297" d="M330.615,437.9a4.445,4.445,0,0,0,1.59-6.628l3.324-32.5h-7.183L325.7,430.5a4.469,4.469,0,0,0,4.912,7.394Z" transform="translate(-267.426 -323.348)" fill="#a0616a"/>
    <path id="Path_1298" data-name="Path 1298" d="M336.6,361.424h0a5.888,5.888,0,0,1,4.714,6.183l-.99,14.17a1.655,1.655,0,0,1-2.136,1.467l-11.927-3.651a1.655,1.655,0,0,1-1.06-2.177l4.745-12.333A5.888,5.888,0,0,1,336.6,361.424Z" transform="translate(-267.99 -301.387)" fill="#ccc"/>
    <path id="Path_1299" data-name="Path 1299" d="M374.187,284.257a12.478,12.478,0,0,0-13.677-7.69l3.2,2.589c-3.981.134-8.172-.151-11.015,2.64.905-.025,2.091,1.911,3,1.886a4.746,4.746,0,0,0-3.974,2.741,7.807,7.807,0,0,0-.461,4.964c.334,1.659,2.883,5.546,3.57,7.092-.118-4.043,7.841-13.686,11.728-12.68a10.665,10.665,0,0,0-4.924,3.739,14.443,14.443,0,0,1,8.566-1.4,6.062,6.062,0,0,0,2.042.114,2.493,2.493,0,0,0,1.478-3.984Z" transform="translate(-283.208 -251.608)" fill="#2f2e41"/>
    <path id="Path_1300" data-name="Path 1300" d="M345.168,682.328H187.512a.414.414,0,0,1,0-.828H345.168a.414.414,0,0,1,0,.828Z" transform="translate(-187.098 -489.084)" fill="#3f3d56"/>
    <rect id="Rectangle_695" data-name="Rectangle 695" width="2.483" height="0.414" transform="translate(336.335 12)" fill="#e6e6e6"/>
    <path id="Path_1301" data-name="Path 1301" d="M767.51,245.914h-5.016V245.5h5.016Zm-10.031,0h-5.016V245.5h5.016Zm-10.031,0h-5.016V245.5h5.016Zm-10.031,0H732.4V245.5h5.016Zm-10.031,0h-5.015V245.5h5.016Zm-10.031,0h-5.016V245.5h5.016Zm-10.031,0h-5.016V245.5h5.016Zm-10.031,0h-5.016V245.5h5.016Zm-10.031,0h-5.016V245.5h5.016Zm-10.031,0h-5.016V245.5h5.016Zm-10.031,0H662.18V245.5H667.2Zm-10.031,0h-5.016V245.5h5.016Zm-10.031,0h-5.016V245.5h5.016Zm-10.031,0h-5.016V245.5H637.1Zm-10.031,0h-5.016V245.5h5.016Zm-10.031,0h-5.016V245.5h5.016Z" transform="translate(-436.191 -233.5)" fill="#e6e6e6"/>
    <rect id="Rectangle_696" data-name="Rectangle 696" width="2.483" height="0.414" transform="translate(168.334 12)" fill="#e6e6e6"/>
    <rect id="Rectangle_697" data-name="Rectangle 697" width="2.483" height="0.414" transform="translate(254.817 50.483)" fill="#e6e6e6"/>
    <path id="Path_1302" data-name="Path 1302" d="M685.96,338.914h-4.941V338.5h4.941Zm-9.882,0h-4.941V338.5h4.941Zm-9.882,0h-4.941V338.5H666.2Zm-9.882,0h-4.941V338.5h4.941Zm-9.882,0h-4.941V338.5h4.941Zm-9.883,0h-4.941V338.5h4.941Zm-9.882,0h-4.941V338.5h4.941Zm-9.882,0h-4.941V338.5h4.941Z" transform="translate(-436.085 -288.017)" fill="#e6e6e6"/>
    <rect id="Rectangle_698" data-name="Rectangle 698" width="2.483" height="0.414" transform="translate(168.334 50.483)" fill="#e6e6e6"/>
    <rect id="Rectangle_699" data-name="Rectangle 699" width="2.483" height="0.414" transform="translate(206.403 68.69)" fill="#e6e6e6"/>
    <path id="Path_1303" data-name="Path 1303" d="M637.606,382.914h-5.084V382.5h5.084Zm-10.168,0h-5.084V382.5h5.083Zm-10.168,0h-5.084V382.5h5.084Z" transform="translate(-436.287 -313.81)" fill="#e6e6e6"/>
    <rect id="Rectangle_700" data-name="Rectangle 700" width="2.483" height="0.414" transform="translate(168.334 68.69)" fill="#e6e6e6"/>
    <path id="Path_1304" data-name="Path 1304" d="M768.851,256.51v70.867A13.464,13.464,0,0,1,755.4,340.825h-144a13.405,13.405,0,0,1-10-4.469v-.633a13,13,0,0,0,9.919,4.688l24.906-24.906a3.516,3.516,0,0,1,4.974,0l13.237,13.233,31.031-31.027a3.517,3.517,0,0,1,4.974,0l18.2,18.2,59.384-59.38.41-.012.19,0Z" transform="translate(-429.964 -239.954)" fill="#0096d6"/>
    <path id="Path_1305" data-name="Path 1305" d="M750.852,317.466h-144A13.464,13.464,0,0,1,593.4,304.018v-74.07A13.464,13.464,0,0,1,606.85,216.5h144A13.464,13.464,0,0,1,764.3,229.948v74.07A13.464,13.464,0,0,1,750.852,317.466Zm-144-100.553a13.049,13.049,0,0,0-13.035,13.035v74.07a13.049,13.049,0,0,0,13.035,13.035h144a13.049,13.049,0,0,0,13.035-13.035v-74.07a13.049,13.049,0,0,0-13.035-13.035Z" transform="translate(-425.275 -216.5)" fill="#3f3d56"/>
    <path id="Path_1306" data-name="Path 1306" d="M625.841,340.354l-.293-.293,24.97-24.97a3.521,3.521,0,0,1,4.974,0l13.237,13.237L699.76,297.3a3.521,3.521,0,0,1,4.974,0l18.2,18.2,59.854-59.854.293.293-60.147,60.147-18.5-18.5a3.1,3.1,0,0,0-4.389,0l-31.323,31.323-13.53-13.53a3.107,3.107,0,0,0-4.389,0Z" transform="translate(-444.119 -239.448)" fill="#3f3d56"/>
    <circle id="Ellipse_290" data-name="Ellipse 290" cx="2.897" cy="2.897" r="2.897" transform="translate(205.989 66.001)" fill="#3f3d56"/>
    <circle id="Ellipse_291" data-name="Ellipse 291" cx="2.897" cy="2.897" r="2.897" transform="translate(254.403 47.794)" fill="#3f3d56"/>
    <circle id="Ellipse_292" data-name="Ellipse 292" cx="2.897" cy="2.897" r="2.897" transform="translate(335.921 9.31)" fill="#3f3d56"/>
    <ellipse id="Ellipse_293" data-name="Ellipse 293" cx="10.879" cy="15.483" rx="10.879" ry="15.483" transform="translate(60.075 89.909)" fill="#3f3d56"/>
    <ellipse id="Ellipse_294" data-name="Ellipse 294" cx="10.879" cy="15.483" rx="10.879" ry="15.483" transform="translate(60.075 89.909)" opacity="0.1"/>
    <ellipse id="Ellipse_295" data-name="Ellipse 295" cx="10.879" cy="15.483" rx="10.879" ry="15.483" transform="translate(61.541 89.909)" fill="#3f3d56"/>
    <ellipse id="Ellipse_296" data-name="Ellipse 296" cx="9.33" cy="13.279" rx="9.33" ry="13.279" transform="translate(63.089 92.112)" opacity="0.1"/>
    <path id="Path_1307" data-name="Path 1307" d="M358.972,468.7v-1.559a3.62,3.62,0,0,1-2.079-.679l.326-1.034a3.322,3.322,0,0,0,1.956.664,1.5,1.5,0,0,0,1.617-1.512c0-.849-.53-1.374-1.535-1.837-1.386-.617-2.242-1.327-2.242-2.67a2.427,2.427,0,0,1,2.051-2.485v-1.559h.842v1.5a3.305,3.305,0,0,1,1.766.54l-.34,1.019a3,3,0,0,0-1.712-.525,1.3,1.3,0,0,0-1.44,1.327c0,.8.5,1.2,1.685,1.759,1.4.648,2.106,1.451,2.106,2.824a2.583,2.583,0,0,1-2.147,2.624V468.7Z" transform="translate(-286.633 -356.914)" fill="#0096d6"/>
    <path id="Path_1308" data-name="Path 1308" d="M369.366,420.761a4.357,4.357,0,0,1,.673.132l15.578-13.359-.911-4.9,7.218-2.341,2.455,8.521a3.31,3.31,0,0,1-1.411,3.714L373.24,425.01a4.344,4.344,0,1,1-3.874-4.249Z" transform="translate(-291.123 -324.239)" fill="#a0616a"/>
    <path id="Path_1309" data-name="Path 1309" d="M401.8,362.645h0a5.888,5.888,0,0,1,6.763,3.834l4.656,13.419a1.655,1.655,0,0,1-1.388,2.188l-12.4,1.328a1.655,1.655,0,0,1-1.83-1.585l-.482-13.206a5.888,5.888,0,0,1,4.683-5.979Z" transform="translate(-310.21 -302.097)" fill="#ccc"/>
  </g>
</svg>
