<svg xmlns="http://www.w3.org/2000/svg" width="320.633" height="211.807" viewBox="0 0 320.633 211.807">
  <g id="Group_695" data-name="Group 695" transform="translate(0 4.646)">
    <path id="Path_1310" data-name="Path 1310" d="M972.279,660.16l.476-.009a110.293,110.293,0,0,0-1.688-15.759c-2.056-11.146-5.475-18.465-10.162-21.756l-.273.389C971.58,630.712,972.274,659.866,972.279,660.16Z" transform="translate(-660.327 -453.463)" fill="#f1f1f1"/>
    <path id="Path_1311" data-name="Path 1311" d="M967.46,693.2l.475-.009c-.01-.527-.307-12.937-5.193-16.367l-.273.389C967.158,680.506,967.458,693.074,967.46,693.2Z" transform="translate(-661.452 -486.618)" fill="#f1f1f1"/>
    <circle id="Ellipse_297" data-name="Ellipse 297" cx="2.377" cy="2.377" r="2.377" transform="translate(295.223 164.85)" fill="#f1f1f1"/>
    <circle id="Ellipse_298" data-name="Ellipse 298" cx="2.377" cy="2.377" r="2.377" transform="translate(296.4 185.295)" fill="#f1f1f1"/>
    <path id="Path_1312" data-name="Path 1312" d="M978.042,619.653a10.56,10.56,0,0,0,.718,5.406,9.624,9.624,0,0,0,1.618-10.335,10.56,10.56,0,0,0-2.336,4.928Z" transform="translate(-670.925 -448.623)" fill="#f1f1f1"/>
    <path id="Path_1313" data-name="Path 1313" d="M951.153,639.847a10.56,10.56,0,0,0,5.449.235,9.624,9.624,0,0,0-9.895-3.394,10.561,10.561,0,0,0,4.446,3.159Z" transform="translate(-651.808 -461.886)" fill="#f1f1f1"/>
    <path id="Path_1314" data-name="Path 1314" d="M953.023,688.117a7.4,7.4,0,0,0,3.819.165,6.746,6.746,0,0,0-6.935-2.379,7.4,7.4,0,0,0,3.116,2.214Z" transform="translate(-653.765 -492.049)" fill="#f1f1f1"/>
    <path id="Path_1315" data-name="Path 1315" d="M467.938,633.458l-.69-.013a160.059,160.059,0,0,1,2.45-22.874c2.984-16.177,7.947-26.8,14.75-31.578l.4.565C468.953,590.715,467.946,633.032,467.938,633.458Z" transform="translate(-358.463 -426.761)" fill="#f1f1f1"/>
    <path id="Path_1316" data-name="Path 1316" d="M490.162,681.416l-.69-.013c.015-.764.446-18.777,7.537-23.756l.4.565C490.6,662.99,490.166,681.233,490.162,681.416Z" transform="translate(-372.06 -474.884)" fill="#f1f1f1"/>
    <circle id="Ellipse_299" data-name="Ellipse 299" cx="3.451" cy="3.451" r="3.451" transform="translate(126.857 145.957)" fill="#f1f1f1"/>
    <circle id="Ellipse_300" data-name="Ellipse 300" cx="3.451" cy="3.451" r="3.451" transform="translate(125.148 175.633)" fill="#f1f1f1"/>
    <path id="Path_1317" data-name="Path 1317" d="M479.855,574.663a15.328,15.328,0,0,1-1.042,7.847,13.969,13.969,0,0,1-2.349-15A15.328,15.328,0,0,1,479.855,574.663Z" transform="translate(-363.361 -419.736)" fill="#f1f1f1"/>
    <path id="Path_1318" data-name="Path 1318" d="M503.7,603.975a15.328,15.328,0,0,1-7.909.342,13.969,13.969,0,0,1,14.362-4.926A15.327,15.327,0,0,1,503.7,603.975Z" transform="translate(-375.925 -438.987)" fill="#f1f1f1"/>
    <path id="Path_1319" data-name="Path 1319" d="M507.755,674.036a10.744,10.744,0,0,1-5.543.239,9.791,9.791,0,0,1,10.066-3.453,10.743,10.743,0,0,1-4.523,3.214Z" transform="translate(-379.854 -482.767)" fill="#f1f1f1"/>
    <path id="Path_1320" data-name="Path 1320" d="M293.808,322.777l-1.66-10.158-4.688-1.172s-3.721-1.146-4.591,6.349-.2,21.488-.2,21.488l-10.293,32.6a4.553,4.553,0,1,0,6.286,2.711l13.384-30.618Z" transform="translate(-237.647 -263.032)" fill="#ffb7b7"/>
    <path id="Path_1321" data-name="Path 1321" d="M401.243,299.041l-2.461-9.994,3.851-2.919s2.972-2.515,6.715,4.036,8.617,19.685,8.617,19.685l22.265,25.936a4.553,4.553,0,1,1-4.717,4.962l-24.331-22.9Z" transform="translate(-316.573 -247.289)" fill="#ffb7b7"/>
    <path id="Path_1322" data-name="Path 1322" d="M267.687,492.15h5.583l2.656-21.535h-8.241Z" transform="translate(-163.777 -290.775)" fill="#ffb7b7"/>
    <path id="Path_1323" data-name="Path 1323" d="M451.02,700.9h11a7.007,7.007,0,0,1,7.007,7.007v.228h-18Z" transform="translate(-348.534 -501.345)" fill="#2f2e41"/>
    <path id="Path_1324" data-name="Path 1324" d="M87.014,492.15H92.6l2.656-21.535H87.013Z" transform="translate(-53.237 -290.775)" fill="#ffb7b7"/>
    <path id="Path_1325" data-name="Path 1325" d="M270.347,700.9h11a7.007,7.007,0,0,1,7.007,7.007v.228h-18Z" transform="translate(-237.994 -501.345)" fill="#2f2e41"/>
    <circle id="Ellipse_301" data-name="Ellipse 301" cx="15.101" cy="15.101" r="15.101" transform="translate(52.919 2.41)" fill="#2f2e41"/>
    <ellipse id="Ellipse_302" data-name="Ellipse 302" cx="6.249" cy="4.686" rx="6.249" ry="4.686" transform="translate(45.187 7.159) rotate(-45)" fill="#2f2e41"/>
    <ellipse id="Ellipse_303" data-name="Ellipse 303" cx="4.686" cy="6.249" rx="4.686" ry="6.249" transform="translate(70.426 3.974) rotate(-66.869)" fill="#2f2e41"/>
    <circle id="Ellipse_304" data-name="Ellipse 304" cx="12.816" cy="12.816" r="12.816" transform="translate(51.106 26.214) rotate(-61.337)" fill="#ffb7b7"/>
    <path id="Path_1326" data-name="Path 1326" d="M328.772,209.634a17.43,17.43,0,0,0,9.961,3.079,10.681,10.681,0,0,1-4.234,1.742,35.147,35.147,0,0,0,14.357.081,9.292,9.292,0,0,0,3.005-1.032,3.8,3.8,0,0,0,1.855-2.481c.315-1.8-1.087-3.434-2.544-4.536a18.768,18.768,0,0,0-15.771-3.151,8.637,8.637,0,0,0-4.671,2.64,4.255,4.255,0,0,0-.393,5.053Z" transform="translate(-273.74 -196.58)" fill="#2f2e41"/>
    <path id="Path_1327" data-name="Path 1327" d="M281.49,282.05,268.8,292.409l11.083,26.427.211,4.228s-11.505,10.608-18.624,40.241-21.5,69.009-21.5,69.009l28.764,7.037,20-67.034,25.494,52.59,3.627,15.555,22.235-6.173-8.582-41.743-21.047-64.795,1.728-17.9a19.792,19.792,0,0,0-2.839-18.394l-2.1-8.888L296.4,280.717Z" transform="translate(-219.413 -244.269)" fill="#2f2e41"/>
    <path id="Path_1328" data-name="Path 1328" d="M753.428,471.241H665.362a2.656,2.656,0,0,1-2.653-2.653V438.88a2.656,2.656,0,0,1,2.653-2.653h88.066a2.656,2.656,0,0,1,2.653,2.653v29.709A2.656,2.656,0,0,1,753.428,471.241Z" transform="translate(-478.051 -339.414)" fill="#e5e5e5"/>
    <rect id="Rectangle_701" data-name="Rectangle 701" width="23.343" height="2.653" transform="translate(198.452 104.771)" fill="#fff"/>
    <circle id="Ellipse_305" data-name="Ellipse 305" cx="1.592" cy="1.592" r="1.592" transform="translate(250.974 104.771)" fill="#2981da"/>
    <circle id="Ellipse_306" data-name="Ellipse 306" cx="1.592" cy="1.592" r="1.592" transform="translate(256.279 104.771)" fill="#2981da"/>
    <circle id="Ellipse_307" data-name="Ellipse 307" cx="1.592" cy="1.592" r="1.592" transform="translate(261.584 104.771)" fill="#2981da"/>
    <path id="Path_1329" data-name="Path 1329" d="M753.428,568.277H665.362a2.656,2.656,0,0,1-2.653-2.653V535.916a2.656,2.656,0,0,1,2.653-2.653h88.066a2.656,2.656,0,0,1,2.653,2.653v29.709A2.656,2.656,0,0,1,753.428,568.277Z" transform="translate(-478.051 -398.783)" fill="#e5e5e5"/>
    <rect id="Rectangle_702" data-name="Rectangle 702" width="23.343" height="2.653" transform="translate(198.452 142.438)" fill="#fff"/>
    <circle id="Ellipse_308" data-name="Ellipse 308" cx="1.592" cy="1.592" r="1.592" transform="translate(250.974 142.438)" fill="#2981da"/>
    <circle id="Ellipse_309" data-name="Ellipse 309" cx="1.592" cy="1.592" r="1.592" transform="translate(256.279 142.438)" fill="#2981da"/>
    <circle id="Ellipse_310" data-name="Ellipse 310" cx="1.592" cy="1.592" r="1.592" transform="translate(261.584 142.438)" fill="#2981da"/>
    <path id="Path_1330" data-name="Path 1330" d="M753.428,665.312H665.362a2.656,2.656,0,0,1-2.653-2.653V632.951a2.656,2.656,0,0,1,2.653-2.653h88.066a2.656,2.656,0,0,1,2.653,2.653V662.66a2.656,2.656,0,0,1-2.653,2.653Z" transform="translate(-478.051 -458.151)" fill="#e5e5e5"/>
    <rect id="Rectangle_703" data-name="Rectangle 703" width="23.343" height="2.653" transform="translate(198.452 180.105)" fill="#fff"/>
    <circle id="Ellipse_311" data-name="Ellipse 311" cx="1.592" cy="1.592" r="1.592" transform="translate(250.974 180.105)" fill="#2981da"/>
    <circle id="Ellipse_312" data-name="Ellipse 312" cx="1.592" cy="1.592" r="1.592" transform="translate(256.279 180.105)" fill="#2981da"/>
    <circle id="Ellipse_313" data-name="Ellipse 313" cx="1.592" cy="1.592" r="1.592" transform="translate(261.584 180.105)" fill="#2981da"/>
    <path id="Path_1331" data-name="Path 1331" d="M543.224,384.85a20.051,20.051,0,0,1-4.971-.643l-.32-.089-.3-.149a82.35,82.35,0,0,1-26.911-21.125,79.971,79.971,0,0,1-13.588-24.127A92.864,92.864,0,0,1,491.887,306c0-.234.008-.414.008-.538a12.881,12.881,0,0,1,7.652-12.1c3.557-1.482,35.858-14.749,38.191-15.708,4.4-2.2,9.084-.364,9.834-.043,1.683.688,31.542,12.9,38,15.974,6.65,3.167,8.424,8.856,8.424,11.718a95.425,95.425,0,0,1-6.67,35.994,83.346,83.346,0,0,1-14.978,24.138c-12.227,13.759-24.457,18.637-24.575,18.68A13.362,13.362,0,0,1,543.224,384.85Zm-2.876-7.124a10.64,10.64,0,0,0,5.093.014c2.021-.737,12.258-6.045,21.823-16.81,13.216-14.873,19.922-33.569,19.932-55.57-.024-.446-.34-3.625-4.55-5.629-6.327-3.013-37.364-15.7-37.677-15.832l-.086-.036a5.624,5.624,0,0,0-4.147-.1l-.286.133c-.346.142-34.633,14.224-38.29,15.748a6.1,6.1,0,0,0-3.469,5.822c0,.155,0,.38-.01.67C498.39,321.191,501.873,358.233,540.348,377.726Z" transform="translate(-373.526 -241.748)" fill="#3f3d56"/>
    <path id="Path_1332" data-name="Path 1332" d="M544.508,286.115s-34.6,14.21-38.306,15.755a9.442,9.442,0,0,0-5.56,8.959c0,3.707-2.78,52.078,43.866,75.466,0,0,4.234,1.171,7.446,0s43.989-20.942,43.989-75.62c0,0,0-5.56-6.487-8.65S551.6,286.115,551.6,286.115,547.752,284.416,544.508,286.115Z" transform="translate(-378.875 -247.11)" fill="#2981da"/>
    <path id="Path_1333" data-name="Path 1333" d="M623.248,315.954V391.76s34.908-16.8,34.6-60.978Z" transform="translate(-453.907 -265.828)" opacity="0.2"/>
    <path id="Path_1334" data-name="Path 1334" d="M507.245,719.276H187.388a.388.388,0,0,1,0-.776H507.245a.388.388,0,0,1,0,.776Z" transform="translate(-187 -512.115)" fill="#cbcbcb"/>
  </g>
</svg>
